<mxfile host="Electron" agent="Mozilla/5.0 (Windows NT 10.0; Win64; x64) AppleWebKit/537.36 (KHTML, like Gecko) draw.io/26.0.9 Chrome/128.0.6613.186 Electron/32.2.5 Safari/537.36" version="26.0.9">
  <diagram name="Page-1" id="58cdce13-f638-feb5-8d6f-7d28b1aa9fa0">
    <mxGraphModel dx="3000" dy="1830" grid="0" gridSize="10" guides="1" tooltips="1" connect="1" arrows="1" fold="1" page="0" pageScale="1" pageWidth="1100" pageHeight="850" background="none" math="0" shadow="0">
      <root>
        <mxCell id="0" />
        <mxCell id="1" parent="0" />
        <mxCell id="kDdogtKYeGdFu2iAVPlt-46" value="" style="rounded=1;whiteSpace=wrap;html=1;fillColor=none;strokeWidth=2;fontSize=20;fontStyle=1" parent="1" vertex="1">
          <mxGeometry x="-563" y="174" width="1257" height="624" as="geometry" />
        </mxCell>
        <mxCell id="kDdogtKYeGdFu2iAVPlt-47" value="" style="rounded=1;whiteSpace=wrap;html=1;fillColor=none;strokeWidth=2;fontSize=20;fontStyle=1" parent="1" vertex="1">
          <mxGeometry x="718" y="167" width="1116" height="631" as="geometry" />
        </mxCell>
        <mxCell id="kDdogtKYeGdFu2iAVPlt-49" style="edgeStyle=orthogonalEdgeStyle;rounded=1;orthogonalLoop=1;jettySize=auto;html=1;entryX=0.5;entryY=0;entryDx=0;entryDy=0;strokeWidth=2;fontSize=20;fontStyle=1;curved=0;" parent="1" source="kDdogtKYeGdFu2iAVPlt-46" target="kDdogtKYeGdFu2iAVPlt-48" edge="1">
          <mxGeometry relative="1" as="geometry">
            <Array as="points">
              <mxPoint x="76" y="873" />
              <mxPoint x="598" y="873" />
            </Array>
          </mxGeometry>
        </mxCell>
        <mxCell id="ceck4IdtYcHGicZahIzw-30" style="edgeStyle=orthogonalEdgeStyle;rounded=0;orthogonalLoop=1;jettySize=auto;html=1;strokeWidth=2;fontSize=20;fontStyle=1" parent="1" source="ceck4IdtYcHGicZahIzw-2" target="ceck4IdtYcHGicZahIzw-18" edge="1">
          <mxGeometry relative="1" as="geometry">
            <Array as="points">
              <mxPoint x="598" y="158" />
              <mxPoint x="318" y="158" />
            </Array>
          </mxGeometry>
        </mxCell>
        <mxCell id="ceck4IdtYcHGicZahIzw-31" style="edgeStyle=orthogonalEdgeStyle;rounded=0;orthogonalLoop=1;jettySize=auto;html=1;strokeWidth=2;fontSize=20;fontStyle=1" parent="1" source="ceck4IdtYcHGicZahIzw-2" target="ceck4IdtYcHGicZahIzw-19" edge="1">
          <mxGeometry relative="1" as="geometry">
            <Array as="points">
              <mxPoint x="598" y="158" />
              <mxPoint x="862" y="158" />
            </Array>
          </mxGeometry>
        </mxCell>
        <mxCell id="7FAmfiopbbTKOHNVbmr1-15" style="edgeStyle=orthogonalEdgeStyle;rounded=0;orthogonalLoop=1;jettySize=auto;html=1;strokeWidth=2;fontSize=20;fontStyle=1" parent="1" source="ceck4IdtYcHGicZahIzw-2" target="7FAmfiopbbTKOHNVbmr1-14" edge="1">
          <mxGeometry relative="1" as="geometry">
            <Array as="points">
              <mxPoint x="598" y="158" />
              <mxPoint x="1705" y="158" />
            </Array>
          </mxGeometry>
        </mxCell>
        <mxCell id="ceck4IdtYcHGicZahIzw-2" value="&lt;span&gt;Login&lt;/span&gt;" style="whiteSpace=wrap;html=1;fontSize=20;fillColor=none;rounded=1;strokeWidth=2;fontStyle=1" parent="1" vertex="1">
          <mxGeometry x="538" y="58" width="120" height="60" as="geometry" />
        </mxCell>
        <mxCell id="ceck4IdtYcHGicZahIzw-29" style="edgeStyle=orthogonalEdgeStyle;rounded=1;orthogonalLoop=1;jettySize=auto;html=1;entryX=0.5;entryY=0;entryDx=0;entryDy=0;strokeWidth=2;fontSize=20;fontStyle=1;curved=0;" parent="1" source="ceck4IdtYcHGicZahIzw-14" target="ceck4IdtYcHGicZahIzw-2" edge="1">
          <mxGeometry relative="1" as="geometry" />
        </mxCell>
        <mxCell id="ceck4IdtYcHGicZahIzw-14" value="" style="strokeWidth=2;html=1;shape=mxgraph.flowchart.start_2;whiteSpace=wrap;fillColor=#000000;fontSize=20;fontStyle=1" parent="1" vertex="1">
          <mxGeometry x="576" y="-110" width="43" height="43" as="geometry" />
        </mxCell>
        <mxCell id="ceck4IdtYcHGicZahIzw-17" style="edgeStyle=orthogonalEdgeStyle;rounded=1;orthogonalLoop=1;jettySize=auto;html=1;entryX=1;entryY=0.5;entryDx=0;entryDy=0;entryPerimeter=0;strokeWidth=2;fontSize=20;fontStyle=1;curved=0;" parent="1" source="ceck4IdtYcHGicZahIzw-2" target="ceck4IdtYcHGicZahIzw-14" edge="1">
          <mxGeometry relative="1" as="geometry">
            <Array as="points">
              <mxPoint x="695" y="83" />
              <mxPoint x="695" y="-88" />
            </Array>
          </mxGeometry>
        </mxCell>
        <mxCell id="ceck4IdtYcHGicZahIzw-18" value="&lt;span&gt;Constituent&lt;/span&gt;&lt;div&gt;&lt;span&gt;Dashboard&lt;/span&gt;&lt;/div&gt;" style="whiteSpace=wrap;html=1;fontSize=20;fillColor=none;rounded=1;strokeWidth=2;fontStyle=1" parent="1" vertex="1">
          <mxGeometry x="258" y="195" width="120" height="60" as="geometry" />
        </mxCell>
        <mxCell id="ceck4IdtYcHGicZahIzw-19" value="&lt;span&gt;Representative&lt;/span&gt;&lt;div&gt;&lt;span&gt;Dashboard&lt;/span&gt;&lt;span&gt;&lt;br&gt;&lt;/span&gt;&lt;/div&gt;" style="whiteSpace=wrap;html=1;fontSize=20;fillColor=none;rounded=1;strokeWidth=2;fontStyle=1" parent="1" vertex="1">
          <mxGeometry x="784" y="195" width="154" height="77" as="geometry" />
        </mxCell>
        <mxCell id="kDdogtKYeGdFu2iAVPlt-31" style="edgeStyle=orthogonalEdgeStyle;rounded=1;orthogonalLoop=1;jettySize=auto;html=1;entryX=0.5;entryY=0;entryDx=0;entryDy=0;strokeWidth=2;fontSize=20;fontStyle=1;curved=0;" parent="1" source="ceck4IdtYcHGicZahIzw-33" target="ceck4IdtYcHGicZahIzw-34" edge="1">
          <mxGeometry relative="1" as="geometry" />
        </mxCell>
        <mxCell id="kDdogtKYeGdFu2iAVPlt-32" style="edgeStyle=orthogonalEdgeStyle;rounded=1;orthogonalLoop=1;jettySize=auto;html=1;entryX=0.5;entryY=0;entryDx=0;entryDy=0;strokeWidth=2;fontSize=20;fontStyle=1;curved=0;" parent="1" source="ceck4IdtYcHGicZahIzw-33" target="ceck4IdtYcHGicZahIzw-36" edge="1">
          <mxGeometry relative="1" as="geometry" />
        </mxCell>
        <mxCell id="kDdogtKYeGdFu2iAVPlt-33" style="edgeStyle=orthogonalEdgeStyle;rounded=1;orthogonalLoop=1;jettySize=auto;html=1;entryX=0.75;entryY=0;entryDx=0;entryDy=0;strokeWidth=2;fontSize=20;fontStyle=1;curved=0;" parent="1" source="ceck4IdtYcHGicZahIzw-33" target="ceck4IdtYcHGicZahIzw-37" edge="1">
          <mxGeometry relative="1" as="geometry">
            <Array as="points">
              <mxPoint x="198" y="526" />
              <mxPoint x="440" y="526" />
            </Array>
          </mxGeometry>
        </mxCell>
        <mxCell id="ceck4IdtYcHGicZahIzw-33" value="&lt;span&gt;Complaint Section&lt;/span&gt;" style="whiteSpace=wrap;html=1;fontSize=20;fillColor=none;rounded=1;strokeWidth=2;fontStyle=1" parent="1" vertex="1">
          <mxGeometry x="138" y="412" width="120" height="60" as="geometry" />
        </mxCell>
        <mxCell id="kDdogtKYeGdFu2iAVPlt-34" style="edgeStyle=orthogonalEdgeStyle;rounded=1;orthogonalLoop=1;jettySize=auto;html=1;strokeWidth=2;fontSize=20;fontStyle=1;curved=0;" parent="1" source="ceck4IdtYcHGicZahIzw-34" target="ceck4IdtYcHGicZahIzw-35" edge="1">
          <mxGeometry relative="1" as="geometry" />
        </mxCell>
        <mxCell id="ceck4IdtYcHGicZahIzw-34" value="&lt;span&gt;Draft Complaint&lt;/span&gt;" style="whiteSpace=wrap;html=1;fontSize=20;fillColor=none;rounded=1;strokeWidth=2;fontStyle=1" parent="1" vertex="1">
          <mxGeometry x="19" y="580" width="120" height="60" as="geometry" />
        </mxCell>
        <mxCell id="ceck4IdtYcHGicZahIzw-35" value="&lt;span&gt;Submit Complaint&lt;/span&gt;" style="whiteSpace=wrap;html=1;fontSize=20;fillColor=none;rounded=1;strokeWidth=2;fontStyle=1" parent="1" vertex="1">
          <mxGeometry x="19" y="707" width="120" height="60" as="geometry" />
        </mxCell>
        <mxCell id="kDdogtKYeGdFu2iAVPlt-35" style="edgeStyle=orthogonalEdgeStyle;rounded=1;orthogonalLoop=1;jettySize=auto;html=1;strokeWidth=2;fontSize=20;fontStyle=1;curved=0;" parent="1" source="ceck4IdtYcHGicZahIzw-36" target="ceck4IdtYcHGicZahIzw-40" edge="1">
          <mxGeometry relative="1" as="geometry" />
        </mxCell>
        <mxCell id="ceck4IdtYcHGicZahIzw-36" value="&lt;span&gt;View Complaint&lt;/span&gt;" style="whiteSpace=wrap;html=1;fontSize=20;fillColor=none;rounded=1;strokeWidth=2;fontStyle=1" parent="1" vertex="1">
          <mxGeometry x="170" y="580" width="120" height="60" as="geometry" />
        </mxCell>
        <mxCell id="ceck4IdtYcHGicZahIzw-37" value="&lt;span&gt;View Complaint History&lt;/span&gt;" style="whiteSpace=wrap;html=1;fontSize=20;fillColor=none;rounded=1;strokeWidth=2;fontStyle=1" parent="1" vertex="1">
          <mxGeometry x="321" y="590" width="158" height="79" as="geometry" />
        </mxCell>
        <mxCell id="kDdogtKYeGdFu2iAVPlt-36" style="edgeStyle=orthogonalEdgeStyle;rounded=1;orthogonalLoop=1;jettySize=auto;html=1;strokeWidth=2;fontSize=20;fontStyle=1;curved=0;" parent="1" source="ceck4IdtYcHGicZahIzw-38" target="ceck4IdtYcHGicZahIzw-39" edge="1">
          <mxGeometry relative="1" as="geometry" />
        </mxCell>
        <mxCell id="ceck4IdtYcHGicZahIzw-38" value="&lt;span&gt;Event Calender&lt;/span&gt;" style="whiteSpace=wrap;html=1;fontSize=20;fillColor=none;rounded=1;strokeWidth=2;fontStyle=1" parent="1" vertex="1">
          <mxGeometry x="537.5" y="412" width="120" height="60" as="geometry" />
        </mxCell>
        <mxCell id="ceck4IdtYcHGicZahIzw-39" value="&lt;span&gt;Virtual Meetup&lt;/span&gt;" style="whiteSpace=wrap;html=1;fontSize=20;fillColor=none;rounded=1;strokeWidth=2;fontStyle=1" parent="1" vertex="1">
          <mxGeometry x="531" y="527.25" width="133" height="65.5" as="geometry" />
        </mxCell>
        <mxCell id="ceck4IdtYcHGicZahIzw-40" value="&lt;span&gt;Provide Feedback&lt;/span&gt;" style="whiteSpace=wrap;html=1;fontSize=20;fillColor=none;rounded=1;strokeWidth=2;fontStyle=1" parent="1" vertex="1">
          <mxGeometry x="170" y="707" width="120" height="60" as="geometry" />
        </mxCell>
        <mxCell id="ceck4IdtYcHGicZahIzw-41" value="&lt;span&gt;Awareness Campaign&lt;/span&gt;" style="whiteSpace=wrap;html=1;fontSize=20;fillColor=none;rounded=1;strokeWidth=2;fontStyle=1" parent="1" vertex="1">
          <mxGeometry x="-318" y="412" width="120" height="60" as="geometry" />
        </mxCell>
        <mxCell id="kDdogtKYeGdFu2iAVPlt-30" style="edgeStyle=orthogonalEdgeStyle;rounded=1;orthogonalLoop=1;jettySize=auto;html=1;strokeWidth=2;fontSize=20;fontStyle=1;curved=0;" parent="1" source="ceck4IdtYcHGicZahIzw-42" target="kDdogtKYeGdFu2iAVPlt-5" edge="1">
          <mxGeometry relative="1" as="geometry" />
        </mxCell>
        <mxCell id="ceck4IdtYcHGicZahIzw-42" value="&lt;span&gt;Statistics&lt;/span&gt;" style="whiteSpace=wrap;html=1;fontSize=20;fillColor=none;rounded=1;strokeWidth=2;fontStyle=1" parent="1" vertex="1">
          <mxGeometry x="-143" y="415" width="120" height="60" as="geometry" />
        </mxCell>
        <mxCell id="kDdogtKYeGdFu2iAVPlt-26" style="edgeStyle=orthogonalEdgeStyle;rounded=1;orthogonalLoop=1;jettySize=auto;html=1;strokeWidth=2;fontSize=20;fontStyle=1;curved=0;" parent="1" source="ceck4IdtYcHGicZahIzw-44" target="kDdogtKYeGdFu2iAVPlt-7" edge="1">
          <mxGeometry relative="1" as="geometry" />
        </mxCell>
        <mxCell id="ceck4IdtYcHGicZahIzw-44" value="&lt;span&gt;Survey&lt;/span&gt;" style="whiteSpace=wrap;html=1;fontSize=20;fillColor=none;rounded=1;strokeWidth=2;fontStyle=1" parent="1" vertex="1">
          <mxGeometry x="-508" y="409" width="120" height="60" as="geometry" />
        </mxCell>
        <mxCell id="kDdogtKYeGdFu2iAVPlt-37" style="edgeStyle=orthogonalEdgeStyle;rounded=1;orthogonalLoop=1;jettySize=auto;html=1;strokeWidth=2;fontSize=20;fontStyle=1;curved=0;" parent="1" source="ceck4IdtYcHGicZahIzw-45" target="ceck4IdtYcHGicZahIzw-46" edge="1">
          <mxGeometry relative="1" as="geometry" />
        </mxCell>
        <mxCell id="ceck4IdtYcHGicZahIzw-45" value="&lt;span&gt;Event Section&lt;/span&gt;" style="whiteSpace=wrap;html=1;fontSize=20;fillColor=none;rounded=1;strokeWidth=2;fontStyle=1" parent="1" vertex="1">
          <mxGeometry x="809" y="412" width="120" height="60" as="geometry" />
        </mxCell>
        <mxCell id="kDdogtKYeGdFu2iAVPlt-38" style="edgeStyle=orthogonalEdgeStyle;rounded=1;orthogonalLoop=1;jettySize=auto;html=1;strokeWidth=2;fontSize=20;fontStyle=1;curved=0;" parent="1" source="ceck4IdtYcHGicZahIzw-46" target="ceck4IdtYcHGicZahIzw-47" edge="1">
          <mxGeometry relative="1" as="geometry" />
        </mxCell>
        <mxCell id="ceck4IdtYcHGicZahIzw-46" value="&lt;span&gt;Add Event&lt;/span&gt;" style="whiteSpace=wrap;html=1;fontSize=20;fillColor=none;rounded=1;strokeWidth=2;fontStyle=1" parent="1" vertex="1">
          <mxGeometry x="802.5" y="533" width="133" height="65.5" as="geometry" />
        </mxCell>
        <mxCell id="ceck4IdtYcHGicZahIzw-47" value="&lt;span&gt;Update Event Calender&lt;/span&gt;" style="whiteSpace=wrap;html=1;fontSize=20;fillColor=none;rounded=1;strokeWidth=2;fontStyle=1" parent="1" vertex="1">
          <mxGeometry x="803" y="675" width="133" height="65.5" as="geometry" />
        </mxCell>
        <mxCell id="kDdogtKYeGdFu2iAVPlt-39" style="edgeStyle=orthogonalEdgeStyle;rounded=1;orthogonalLoop=1;jettySize=auto;html=1;strokeWidth=2;fontSize=20;fontStyle=1;curved=0;" parent="1" source="ceck4IdtYcHGicZahIzw-48" target="ceck4IdtYcHGicZahIzw-49" edge="1">
          <mxGeometry relative="1" as="geometry" />
        </mxCell>
        <mxCell id="ceck4IdtYcHGicZahIzw-48" value="&lt;span&gt;Awareness Campaign Section&lt;/span&gt;" style="whiteSpace=wrap;html=1;fontSize=20;fillColor=none;rounded=1;strokeWidth=2;fontStyle=1" parent="1" vertex="1">
          <mxGeometry x="1043" y="412" width="176" height="88" as="geometry" />
        </mxCell>
        <mxCell id="kDdogtKYeGdFu2iAVPlt-40" style="edgeStyle=orthogonalEdgeStyle;rounded=1;orthogonalLoop=1;jettySize=auto;html=1;strokeWidth=2;fontSize=20;fontStyle=1;curved=0;" parent="1" source="ceck4IdtYcHGicZahIzw-49" target="ceck4IdtYcHGicZahIzw-50" edge="1">
          <mxGeometry relative="1" as="geometry" />
        </mxCell>
        <mxCell id="ceck4IdtYcHGicZahIzw-49" value="&lt;span&gt;Draft Awareness Campaign&lt;/span&gt;" style="whiteSpace=wrap;html=1;fontSize=20;fillColor=none;rounded=1;strokeWidth=2;fontStyle=1" parent="1" vertex="1">
          <mxGeometry x="1046" y="543" width="172" height="91" as="geometry" />
        </mxCell>
        <mxCell id="ceck4IdtYcHGicZahIzw-50" value="&lt;span&gt;Post Awareness Campaign&lt;/span&gt;" style="whiteSpace=wrap;html=1;fontSize=20;fillColor=none;rounded=1;strokeWidth=2;fontStyle=1" parent="1" vertex="1">
          <mxGeometry x="1056" y="681" width="152.29" height="75" as="geometry" />
        </mxCell>
        <mxCell id="kDdogtKYeGdFu2iAVPlt-41" style="edgeStyle=orthogonalEdgeStyle;rounded=1;orthogonalLoop=1;jettySize=auto;html=1;strokeWidth=2;fontSize=20;fontStyle=1;curved=0;" parent="1" source="ceck4IdtYcHGicZahIzw-51" target="ceck4IdtYcHGicZahIzw-52" edge="1">
          <mxGeometry relative="1" as="geometry">
            <Array as="points">
              <mxPoint x="1455" y="512" />
              <mxPoint x="1365" y="512" />
            </Array>
          </mxGeometry>
        </mxCell>
        <mxCell id="kDdogtKYeGdFu2iAVPlt-42" style="edgeStyle=orthogonalEdgeStyle;rounded=1;orthogonalLoop=1;jettySize=auto;html=1;strokeWidth=2;fontSize=20;fontStyle=1;curved=0;" parent="1" source="ceck4IdtYcHGicZahIzw-51" target="kDdogtKYeGdFu2iAVPlt-9" edge="1">
          <mxGeometry relative="1" as="geometry">
            <Array as="points">
              <mxPoint x="1455" y="512" />
              <mxPoint x="1547" y="512" />
            </Array>
          </mxGeometry>
        </mxCell>
        <mxCell id="ceck4IdtYcHGicZahIzw-51" value="&lt;span&gt;Survey&lt;/span&gt;&lt;div&gt;&lt;span&gt;Section&lt;/span&gt;&lt;/div&gt;" style="whiteSpace=wrap;html=1;fontSize=20;fillColor=none;rounded=1;strokeWidth=2;fontStyle=1" parent="1" vertex="1">
          <mxGeometry x="1395" y="415" width="120" height="60" as="geometry" />
        </mxCell>
        <mxCell id="ceck4IdtYcHGicZahIzw-52" value="&lt;span&gt;Create Survey&lt;/span&gt;" style="whiteSpace=wrap;html=1;fontSize=20;fillColor=none;rounded=1;strokeWidth=2;fontStyle=1" parent="1" vertex="1">
          <mxGeometry x="1299" y="550" width="133" height="65.5" as="geometry" />
        </mxCell>
        <mxCell id="ceck4IdtYcHGicZahIzw-53" value="&lt;span&gt;Distribute Survey&lt;/span&gt;" style="whiteSpace=wrap;html=1;fontSize=20;fillColor=none;rounded=1;strokeWidth=2;fontStyle=1" parent="1" vertex="1">
          <mxGeometry x="1298.5" y="685" width="133" height="65.5" as="geometry" />
        </mxCell>
        <mxCell id="kDdogtKYeGdFu2iAVPlt-44" style="edgeStyle=orthogonalEdgeStyle;rounded=1;orthogonalLoop=1;jettySize=auto;html=1;strokeWidth=2;fontSize=20;fontStyle=1;curved=0;" parent="1" source="kDdogtKYeGdFu2iAVPlt-1" target="kDdogtKYeGdFu2iAVPlt-2" edge="1">
          <mxGeometry relative="1" as="geometry" />
        </mxCell>
        <mxCell id="kDdogtKYeGdFu2iAVPlt-1" value="&lt;span&gt;Complaint Section&lt;/span&gt;" style="whiteSpace=wrap;html=1;fontSize=20;fillColor=none;rounded=1;strokeWidth=2;fontStyle=1" parent="1" vertex="1">
          <mxGeometry x="1668" y="415" width="120" height="60" as="geometry" />
        </mxCell>
        <mxCell id="kDdogtKYeGdFu2iAVPlt-45" style="edgeStyle=orthogonalEdgeStyle;rounded=1;orthogonalLoop=1;jettySize=auto;html=1;strokeWidth=2;fontSize=20;fontStyle=1;curved=0;" parent="1" source="kDdogtKYeGdFu2iAVPlt-2" target="kDdogtKYeGdFu2iAVPlt-3" edge="1">
          <mxGeometry relative="1" as="geometry" />
        </mxCell>
        <mxCell id="kDdogtKYeGdFu2iAVPlt-2" value="&lt;span&gt;View Complaint&lt;/span&gt;" style="whiteSpace=wrap;html=1;fontSize=20;fillColor=none;rounded=1;strokeWidth=2;fontStyle=1" parent="1" vertex="1">
          <mxGeometry x="1661.5" y="550" width="133" height="65.5" as="geometry" />
        </mxCell>
        <mxCell id="kDdogtKYeGdFu2iAVPlt-3" value="&lt;span&gt;Resolve Complaint&lt;/span&gt;" style="whiteSpace=wrap;html=1;fontSize=20;fillColor=none;rounded=1;strokeWidth=2;fontStyle=1" parent="1" vertex="1">
          <mxGeometry x="1662" y="682" width="133" height="65.5" as="geometry" />
        </mxCell>
        <mxCell id="kDdogtKYeGdFu2iAVPlt-4" value="&lt;span&gt;View Awareness Campaign&lt;/span&gt;" style="whiteSpace=wrap;html=1;fontSize=20;fillColor=none;rounded=1;strokeWidth=2;fontStyle=1" parent="1" vertex="1">
          <mxGeometry x="-356" y="525.38" width="185.5" height="92.75" as="geometry" />
        </mxCell>
        <mxCell id="kDdogtKYeGdFu2iAVPlt-5" value="&lt;span&gt;View Stats&lt;/span&gt;" style="whiteSpace=wrap;html=1;fontSize=20;fillColor=none;rounded=1;strokeWidth=2;fontStyle=1" parent="1" vertex="1">
          <mxGeometry x="-143" y="525.38" width="120" height="60" as="geometry" />
        </mxCell>
        <mxCell id="kDdogtKYeGdFu2iAVPlt-27" style="edgeStyle=orthogonalEdgeStyle;rounded=1;orthogonalLoop=1;jettySize=auto;html=1;strokeWidth=2;fontSize=20;fontStyle=1;curved=0;" parent="1" source="kDdogtKYeGdFu2iAVPlt-7" target="kDdogtKYeGdFu2iAVPlt-8" edge="1">
          <mxGeometry relative="1" as="geometry" />
        </mxCell>
        <mxCell id="kDdogtKYeGdFu2iAVPlt-7" value="&lt;span&gt;View Survey&lt;/span&gt;" style="whiteSpace=wrap;html=1;fontSize=20;fillColor=none;rounded=1;strokeWidth=2;fontStyle=1" parent="1" vertex="1">
          <mxGeometry x="-513.5" y="525.38" width="131" height="60" as="geometry" />
        </mxCell>
        <mxCell id="kDdogtKYeGdFu2iAVPlt-8" value="&lt;span&gt;Fill Survey&lt;/span&gt;" style="whiteSpace=wrap;html=1;fontSize=20;fillColor=none;rounded=1;strokeWidth=2;fontStyle=1" parent="1" vertex="1">
          <mxGeometry x="-504.77" y="658" width="113.53" height="52" as="geometry" />
        </mxCell>
        <mxCell id="kDdogtKYeGdFu2iAVPlt-9" value="&lt;span&gt;View Survey Results&lt;/span&gt;" style="whiteSpace=wrap;html=1;fontSize=20;fillColor=none;rounded=1;strokeWidth=2;fontStyle=1" parent="1" vertex="1">
          <mxGeometry x="1481" y="545.75" width="133" height="65.5" as="geometry" />
        </mxCell>
        <mxCell id="kDdogtKYeGdFu2iAVPlt-24" value="" style="group;strokeWidth=2;fontSize=20;fontStyle=1" parent="1" vertex="1" connectable="0">
          <mxGeometry x="-453" y="347" width="1052" height="68" as="geometry" />
        </mxCell>
        <mxCell id="kDdogtKYeGdFu2iAVPlt-13" style="edgeStyle=orthogonalEdgeStyle;rounded=0;orthogonalLoop=1;jettySize=auto;html=1;strokeWidth=2;endArrow=none;endFill=0;fontSize=20;fontStyle=1" parent="kDdogtKYeGdFu2iAVPlt-24" source="ceck4IdtYcHGicZahIzw-18" edge="1">
          <mxGeometry relative="1" as="geometry">
            <mxPoint x="771" y="4.25" as="targetPoint" />
          </mxGeometry>
        </mxCell>
        <mxCell id="kDdogtKYeGdFu2iAVPlt-11" value="" style="endArrow=none;html=1;rounded=0;strokeWidth=2;fontSize=20;fontStyle=1" parent="kDdogtKYeGdFu2iAVPlt-24" edge="1">
          <mxGeometry width="50" height="50" relative="1" as="geometry">
            <mxPoint as="sourcePoint" />
            <mxPoint x="1052" y="6" as="targetPoint" />
          </mxGeometry>
        </mxCell>
        <mxCell id="kDdogtKYeGdFu2iAVPlt-14" value="" style="endArrow=classic;html=1;rounded=1;entryX=0.5;entryY=0;entryDx=0;entryDy=0;strokeWidth=2;fontSize=20;fontStyle=1;curved=0;" parent="kDdogtKYeGdFu2iAVPlt-24" target="ceck4IdtYcHGicZahIzw-44" edge="1">
          <mxGeometry width="50" height="50" relative="1" as="geometry">
            <mxPoint x="5" as="sourcePoint" />
            <mxPoint x="93" y="14" as="targetPoint" />
          </mxGeometry>
        </mxCell>
        <mxCell id="kDdogtKYeGdFu2iAVPlt-15" value="" style="endArrow=classic;html=1;rounded=1;entryX=0.5;entryY=0;entryDx=0;entryDy=0;strokeWidth=2;fontSize=20;fontStyle=1;curved=0;" parent="kDdogtKYeGdFu2iAVPlt-24" edge="1">
          <mxGeometry width="50" height="50" relative="1" as="geometry">
            <mxPoint x="195" y="2" as="sourcePoint" />
            <mxPoint x="195" y="64" as="targetPoint" />
          </mxGeometry>
        </mxCell>
        <mxCell id="kDdogtKYeGdFu2iAVPlt-16" value="" style="endArrow=classic;html=1;rounded=1;entryX=0.5;entryY=0;entryDx=0;entryDy=0;strokeWidth=2;fontSize=20;fontStyle=1;curved=0;" parent="kDdogtKYeGdFu2iAVPlt-24" edge="1">
          <mxGeometry width="50" height="50" relative="1" as="geometry">
            <mxPoint x="371" y="3" as="sourcePoint" />
            <mxPoint x="371" y="68" as="targetPoint" />
          </mxGeometry>
        </mxCell>
        <mxCell id="kDdogtKYeGdFu2iAVPlt-17" value="" style="endArrow=classic;html=1;rounded=1;entryX=0.5;entryY=0;entryDx=0;entryDy=0;strokeWidth=2;fontSize=20;fontStyle=1;curved=0;" parent="kDdogtKYeGdFu2iAVPlt-24" edge="1">
          <mxGeometry width="50" height="50" relative="1" as="geometry">
            <mxPoint x="661" y="4" as="sourcePoint" />
            <mxPoint x="661" y="64" as="targetPoint" />
          </mxGeometry>
        </mxCell>
        <mxCell id="kDdogtKYeGdFu2iAVPlt-18" value="" style="endArrow=classic;html=1;rounded=1;entryX=0.5;entryY=0;entryDx=0;entryDy=0;strokeWidth=2;fontSize=20;fontStyle=1;curved=0;" parent="kDdogtKYeGdFu2iAVPlt-24" edge="1">
          <mxGeometry width="50" height="50" relative="1" as="geometry">
            <mxPoint x="1047" y="5" as="sourcePoint" />
            <mxPoint x="1047" y="64" as="targetPoint" />
          </mxGeometry>
        </mxCell>
        <mxCell id="kDdogtKYeGdFu2iAVPlt-25" value="" style="group;strokeWidth=2;fontSize=20;fontStyle=1" parent="1" vertex="1" connectable="0">
          <mxGeometry x="861" y="308" width="860" height="107" as="geometry" />
        </mxCell>
        <mxCell id="kDdogtKYeGdFu2iAVPlt-12" value="" style="endArrow=none;html=1;rounded=0;strokeWidth=2;fontSize=20;fontStyle=1" parent="kDdogtKYeGdFu2iAVPlt-25" edge="1">
          <mxGeometry width="50" height="50" relative="1" as="geometry">
            <mxPoint x="9" y="39" as="sourcePoint" />
            <mxPoint x="860" y="45" as="targetPoint" />
          </mxGeometry>
        </mxCell>
        <mxCell id="kDdogtKYeGdFu2iAVPlt-19" value="" style="endArrow=classic;html=1;rounded=1;entryX=0.5;entryY=0;entryDx=0;entryDy=0;strokeWidth=2;fontSize=20;fontStyle=1;curved=0;" parent="kDdogtKYeGdFu2iAVPlt-25" edge="1">
          <mxGeometry width="50" height="50" relative="1" as="geometry">
            <mxPoint x="14" y="40" as="sourcePoint" />
            <mxPoint x="14" y="104" as="targetPoint" />
          </mxGeometry>
        </mxCell>
        <mxCell id="kDdogtKYeGdFu2iAVPlt-20" value="" style="endArrow=classic;html=1;rounded=1;entryX=0.5;entryY=0;entryDx=0;entryDy=0;strokeWidth=2;fontSize=20;fontStyle=1;curved=0;" parent="kDdogtKYeGdFu2iAVPlt-25" edge="1">
          <mxGeometry width="50" height="50" relative="1" as="geometry">
            <mxPoint x="264" y="40" as="sourcePoint" />
            <mxPoint x="264" y="104" as="targetPoint" />
          </mxGeometry>
        </mxCell>
        <mxCell id="kDdogtKYeGdFu2iAVPlt-21" value="" style="endArrow=classic;html=1;rounded=1;entryX=0.5;entryY=0;entryDx=0;entryDy=0;strokeWidth=2;fontSize=20;fontStyle=1;curved=0;" parent="kDdogtKYeGdFu2iAVPlt-25" edge="1">
          <mxGeometry width="50" height="50" relative="1" as="geometry">
            <mxPoint x="584" y="43" as="sourcePoint" />
            <mxPoint x="584" y="107" as="targetPoint" />
          </mxGeometry>
        </mxCell>
        <mxCell id="kDdogtKYeGdFu2iAVPlt-22" value="" style="endArrow=classic;html=1;rounded=1;entryX=0.5;entryY=0;entryDx=0;entryDy=0;strokeWidth=2;fontSize=20;fontStyle=1;curved=0;" parent="kDdogtKYeGdFu2iAVPlt-25" edge="1">
          <mxGeometry width="50" height="50" relative="1" as="geometry">
            <mxPoint x="859" y="43" as="sourcePoint" />
            <mxPoint x="859" y="107" as="targetPoint" />
          </mxGeometry>
        </mxCell>
        <mxCell id="kDdogtKYeGdFu2iAVPlt-23" value="" style="endArrow=none;html=1;rounded=1;entryX=0.5;entryY=1;entryDx=0;entryDy=0;strokeWidth=2;fontSize=20;fontStyle=1;curved=0;" parent="kDdogtKYeGdFu2iAVPlt-25" target="ceck4IdtYcHGicZahIzw-19" edge="1">
          <mxGeometry width="50" height="50" relative="1" as="geometry">
            <mxPoint x="439" y="41" as="sourcePoint" />
            <mxPoint x="468" y="-35" as="targetPoint" />
            <Array as="points">
              <mxPoint x="439" y="6" />
              <mxPoint />
            </Array>
          </mxGeometry>
        </mxCell>
        <mxCell id="kDdogtKYeGdFu2iAVPlt-29" style="edgeStyle=orthogonalEdgeStyle;rounded=1;orthogonalLoop=1;jettySize=auto;html=1;entryX=0.533;entryY=-0.016;entryDx=0;entryDy=0;entryPerimeter=0;strokeWidth=2;fontSize=20;fontStyle=1;curved=0;" parent="1" source="ceck4IdtYcHGicZahIzw-41" target="kDdogtKYeGdFu2iAVPlt-4" edge="1">
          <mxGeometry relative="1" as="geometry" />
        </mxCell>
        <mxCell id="kDdogtKYeGdFu2iAVPlt-43" style="edgeStyle=orthogonalEdgeStyle;rounded=1;orthogonalLoop=1;jettySize=auto;html=1;entryX=0.5;entryY=0;entryDx=0;entryDy=0;strokeWidth=2;fontSize=20;fontStyle=1;curved=0;exitX=0.499;exitY=1.01;exitDx=0;exitDy=0;exitPerimeter=0;" parent="1" source="ceck4IdtYcHGicZahIzw-52" target="ceck4IdtYcHGicZahIzw-53" edge="1">
          <mxGeometry relative="1" as="geometry">
            <mxPoint x="1365.4912280701756" y="612.5" as="sourcePoint" />
            <mxPoint x="1366.0490000000004" y="685.4714999999999" as="targetPoint" />
          </mxGeometry>
        </mxCell>
        <mxCell id="kDdogtKYeGdFu2iAVPlt-50" style="edgeStyle=orthogonalEdgeStyle;rounded=1;orthogonalLoop=1;jettySize=auto;html=1;entryX=0.5;entryY=0;entryDx=0;entryDy=0;strokeWidth=2;fontSize=20;fontStyle=1;curved=0;" parent="1" source="kDdogtKYeGdFu2iAVPlt-47" target="kDdogtKYeGdFu2iAVPlt-48" edge="1">
          <mxGeometry relative="1" as="geometry">
            <Array as="points">
              <mxPoint x="1277" y="873" />
              <mxPoint x="598" y="873" />
            </Array>
          </mxGeometry>
        </mxCell>
        <mxCell id="kDdogtKYeGdFu2iAVPlt-52" style="edgeStyle=orthogonalEdgeStyle;rounded=1;orthogonalLoop=1;jettySize=auto;html=1;entryX=0.5;entryY=0;entryDx=0;entryDy=0;strokeWidth=2;fontSize=20;fontStyle=1;curved=0;" parent="1" source="kDdogtKYeGdFu2iAVPlt-48" target="kDdogtKYeGdFu2iAVPlt-51" edge="1">
          <mxGeometry relative="1" as="geometry" />
        </mxCell>
        <mxCell id="kDdogtKYeGdFu2iAVPlt-48" value="&lt;span&gt;Logout&lt;/span&gt;" style="whiteSpace=wrap;html=1;fontSize=20;fillColor=none;rounded=1;strokeWidth=2;fontStyle=1" parent="1" vertex="1">
          <mxGeometry x="538" y="977" width="120" height="60" as="geometry" />
        </mxCell>
        <mxCell id="kDdogtKYeGdFu2iAVPlt-51" value="" style="ellipse;html=1;shape=endState;fillColor=#000000;strokeColor=light-dark(#000000,#FF9090);strokeWidth=2;fontSize=20;fontStyle=1" parent="1" vertex="1">
          <mxGeometry x="577" y="1121" width="41" height="41" as="geometry" />
        </mxCell>
        <mxCell id="7FAmfiopbbTKOHNVbmr1-1" value="&lt;font&gt;&lt;span&gt;Enter&lt;/span&gt;&lt;/font&gt;" style="text;html=1;align=center;verticalAlign=middle;resizable=0;points=[];autosize=1;strokeColor=none;fillColor=none;fontSize=20;fontStyle=1" parent="1" vertex="1">
          <mxGeometry x="528" y="-20" width="66" height="36" as="geometry" />
        </mxCell>
        <mxCell id="7FAmfiopbbTKOHNVbmr1-2" value="&lt;font&gt;&lt;span&gt;Successful Verification&lt;/span&gt;&lt;/font&gt;" style="text;html=1;align=center;verticalAlign=middle;resizable=0;points=[];autosize=1;strokeColor=none;fillColor=none;fontSize=20;fontStyle=1" parent="1" vertex="1">
          <mxGeometry x="613" y="124" width="218" height="36" as="geometry" />
        </mxCell>
        <mxCell id="7FAmfiopbbTKOHNVbmr1-3" value="&lt;font&gt;&lt;span&gt;Unsuccessful Verification&lt;/span&gt;&lt;/font&gt;" style="text;html=1;align=center;verticalAlign=middle;resizable=0;points=[];autosize=1;strokeColor=none;fillColor=none;fontSize=20;fontStyle=1" parent="1" vertex="1">
          <mxGeometry x="708" y="-30" width="240" height="36" as="geometry" />
        </mxCell>
        <mxCell id="7FAmfiopbbTKOHNVbmr1-4" value="&lt;font&gt;&lt;span&gt;Navigate&lt;/span&gt;&lt;/font&gt;" style="text;html=1;align=center;verticalAlign=middle;resizable=0;points=[];autosize=1;strokeColor=none;fillColor=none;fontSize=20;fontStyle=1" parent="1" vertex="1">
          <mxGeometry x="980" y="275" width="97" height="36" as="geometry" />
        </mxCell>
        <mxCell id="7FAmfiopbbTKOHNVbmr1-5" value="&lt;font&gt;&lt;span&gt;Navigate&lt;/span&gt;&lt;/font&gt;" style="text;html=1;align=center;verticalAlign=middle;resizable=0;points=[];autosize=1;strokeColor=none;fillColor=none;fontSize=20;fontStyle=1" parent="1" vertex="1">
          <mxGeometry x="220" y="286" width="97" height="36" as="geometry" />
        </mxCell>
        <mxCell id="7FAmfiopbbTKOHNVbmr1-6" value="&lt;span&gt;&lt;span&gt;&amp;nbsp;&lt;/span&gt;&lt;/span&gt;" style="text;html=1;align=center;verticalAlign=middle;resizable=0;points=[];autosize=1;strokeColor=none;fillColor=none;fontSize=20;fontStyle=1" parent="1" vertex="1">
          <mxGeometry x="122" y="601" width="24" height="36" as="geometry" />
        </mxCell>
        <mxCell id="7FAmfiopbbTKOHNVbmr1-7" value="&lt;font&gt;&lt;span&gt;Complaint Found&lt;/span&gt;&lt;/font&gt;" style="text;html=1;align=center;verticalAlign=middle;resizable=0;points=[];autosize=1;strokeColor=none;fillColor=none;fontSize=20;fontStyle=1" parent="1" vertex="1">
          <mxGeometry x="229" y="536" width="170" height="36" as="geometry" />
        </mxCell>
        <mxCell id="7FAmfiopbbTKOHNVbmr1-8" value="&lt;font&gt;&lt;span&gt;Attend&lt;/span&gt;&lt;/font&gt;" style="text;html=1;align=center;verticalAlign=middle;resizable=0;points=[];autosize=1;strokeColor=none;fillColor=none;fontSize=20;fontStyle=1" parent="1" vertex="1">
          <mxGeometry x="599" y="478" width="76" height="36" as="geometry" />
        </mxCell>
        <mxCell id="7FAmfiopbbTKOHNVbmr1-9" value="&lt;font&gt;&lt;span&gt;Campaign Found&lt;/span&gt;&lt;/font&gt;" style="text;html=1;align=center;verticalAlign=middle;resizable=0;points=[];autosize=1;strokeColor=none;fillColor=none;fontSize=20;fontStyle=1" parent="1" vertex="1">
          <mxGeometry x="-359" y="478" width="171" height="36" as="geometry" />
        </mxCell>
        <mxCell id="7FAmfiopbbTKOHNVbmr1-10" value="&lt;font&gt;&lt;span&gt;Paticipate&lt;/span&gt;&lt;/font&gt;" style="text;html=1;align=center;verticalAlign=middle;resizable=0;points=[];autosize=1;strokeColor=none;fillColor=none;fontSize=20;fontStyle=1" parent="1" vertex="1">
          <mxGeometry x="-553" y="601.5" width="106" height="36" as="geometry" />
        </mxCell>
        <mxCell id="7FAmfiopbbTKOHNVbmr1-11" value="&lt;font&gt;&lt;span&gt;Created&lt;/span&gt;&lt;/font&gt;" style="text;html=1;align=center;verticalAlign=middle;resizable=0;points=[];autosize=1;strokeColor=none;fillColor=none;fontSize=20;fontStyle=1" parent="1" vertex="1">
          <mxGeometry x="1366" y="628" width="89" height="36" as="geometry" />
        </mxCell>
        <mxCell id="7FAmfiopbbTKOHNVbmr1-12" value="&lt;font&gt;&lt;span&gt;Compile Results&lt;/span&gt;&lt;/font&gt;" style="text;html=1;align=center;verticalAlign=middle;resizable=0;points=[];autosize=1;strokeColor=none;fillColor=none;fontSize=20;fontStyle=1" parent="1" vertex="1">
          <mxGeometry x="1504" y="481" width="164" height="36" as="geometry" />
        </mxCell>
        <mxCell id="7FAmfiopbbTKOHNVbmr1-13" value="&lt;font&gt;&lt;span&gt;Update&lt;/span&gt;&lt;/font&gt;" style="text;html=1;align=center;verticalAlign=middle;resizable=0;points=[];autosize=1;strokeColor=none;fillColor=none;fontSize=20;fontStyle=1" parent="1" vertex="1">
          <mxGeometry x="1733" y="628" width="83" height="36" as="geometry" />
        </mxCell>
        <mxCell id="7FAmfiopbbTKOHNVbmr1-16" style="edgeStyle=orthogonalEdgeStyle;rounded=0;orthogonalLoop=1;jettySize=auto;html=1;entryX=0.75;entryY=0;entryDx=0;entryDy=0;exitX=0.75;exitY=1;exitDx=0;exitDy=0;strokeWidth=2;fontSize=20;fontStyle=1" parent="1" source="7FAmfiopbbTKOHNVbmr1-14" target="kDdogtKYeGdFu2iAVPlt-1" edge="1">
          <mxGeometry relative="1" as="geometry" />
        </mxCell>
        <mxCell id="7FAmfiopbbTKOHNVbmr1-14" value="&lt;div&gt;&lt;span&gt;Department Complaint Handler&lt;/span&gt;&lt;/div&gt;" style="whiteSpace=wrap;html=1;fontSize=20;fillColor=none;rounded=1;strokeWidth=2;fontStyle=1" parent="1" vertex="1">
          <mxGeometry x="1643" y="195" width="154" height="77" as="geometry" />
        </mxCell>
        <mxCell id="S2aR7nFiy4Ns1DJ3flob-14" style="edgeStyle=orthogonalEdgeStyle;rounded=1;orthogonalLoop=1;jettySize=auto;html=1;strokeWidth=2;curved=0;" parent="1" source="S2aR7nFiy4Ns1DJ3flob-1" target="S2aR7nFiy4Ns1DJ3flob-4" edge="1">
          <mxGeometry relative="1" as="geometry">
            <Array as="points">
              <mxPoint x="3258" y="-126" />
              <mxPoint x="3066" y="-126" />
            </Array>
          </mxGeometry>
        </mxCell>
        <mxCell id="S2aR7nFiy4Ns1DJ3flob-56" value="Select Register" style="edgeLabel;html=1;align=center;verticalAlign=middle;resizable=0;points=[];" parent="S2aR7nFiy4Ns1DJ3flob-14" vertex="1" connectable="0">
          <mxGeometry x="0.2703" y="-2" relative="1" as="geometry">
            <mxPoint as="offset" />
          </mxGeometry>
        </mxCell>
        <mxCell id="S2aR7nFiy4Ns1DJ3flob-15" style="edgeStyle=orthogonalEdgeStyle;rounded=1;orthogonalLoop=1;jettySize=auto;html=1;strokeWidth=2;curved=0;" parent="1" source="S2aR7nFiy4Ns1DJ3flob-1" target="S2aR7nFiy4Ns1DJ3flob-6" edge="1">
          <mxGeometry relative="1" as="geometry">
            <Array as="points">
              <mxPoint x="3258" y="-126" />
              <mxPoint x="3438" y="-126" />
            </Array>
          </mxGeometry>
        </mxCell>
        <mxCell id="S2aR7nFiy4Ns1DJ3flob-55" value="&lt;span style=&quot;font-size: 12px;&quot;&gt;Select Login&lt;/span&gt;" style="edgeLabel;html=1;align=center;verticalAlign=middle;resizable=0;points=[];" parent="S2aR7nFiy4Ns1DJ3flob-15" vertex="1" connectable="0">
          <mxGeometry x="-0.1871" relative="1" as="geometry">
            <mxPoint as="offset" />
          </mxGeometry>
        </mxCell>
        <mxCell id="S2aR7nFiy4Ns1DJ3flob-59" value="" style="edgeStyle=orthogonalEdgeStyle;rounded=0;orthogonalLoop=1;jettySize=auto;html=1;" parent="1" source="S2aR7nFiy4Ns1DJ3flob-1" target="S2aR7nFiy4Ns1DJ3flob-2" edge="1">
          <mxGeometry relative="1" as="geometry" />
        </mxCell>
        <mxCell id="S2aR7nFiy4Ns1DJ3flob-1" value="&lt;b&gt;&lt;font style=&quot;font-size: 20px;&quot;&gt;Idle&lt;/font&gt;&lt;/b&gt;" style="rounded=1;whiteSpace=wrap;html=1;strokeWidth=2;fillColor=none;" parent="1" vertex="1">
          <mxGeometry x="3198" y="-237" width="120" height="60" as="geometry" />
        </mxCell>
        <mxCell id="S2aR7nFiy4Ns1DJ3flob-3" style="edgeStyle=orthogonalEdgeStyle;rounded=1;orthogonalLoop=1;jettySize=auto;html=1;strokeWidth=2;curved=0;" parent="1" source="S2aR7nFiy4Ns1DJ3flob-2" target="S2aR7nFiy4Ns1DJ3flob-1" edge="1">
          <mxGeometry relative="1" as="geometry" />
        </mxCell>
        <mxCell id="S2aR7nFiy4Ns1DJ3flob-2" value="" style="strokeWidth=2;html=1;shape=mxgraph.flowchart.start_2;whiteSpace=wrap;fillColor=#000000;fontSize=20;fontStyle=1" parent="1" vertex="1">
          <mxGeometry x="3237" y="-341" width="43" height="43" as="geometry" />
        </mxCell>
        <mxCell id="S2aR7nFiy4Ns1DJ3flob-20" style="edgeStyle=orthogonalEdgeStyle;rounded=1;orthogonalLoop=1;jettySize=auto;html=1;strokeWidth=2;curved=0;" parent="1" source="S2aR7nFiy4Ns1DJ3flob-4" target="S2aR7nFiy4Ns1DJ3flob-8" edge="1">
          <mxGeometry relative="1" as="geometry">
            <Array as="points">
              <mxPoint x="3068" y="71" />
              <mxPoint x="3238" y="71" />
            </Array>
          </mxGeometry>
        </mxCell>
        <mxCell id="S2aR7nFiy4Ns1DJ3flob-34" style="edgeStyle=orthogonalEdgeStyle;rounded=1;orthogonalLoop=1;jettySize=auto;html=1;entryX=0;entryY=0.5;entryDx=0;entryDy=0;strokeWidth=2;curved=0;" parent="1" source="S2aR7nFiy4Ns1DJ3flob-4" target="S2aR7nFiy4Ns1DJ3flob-31" edge="1">
          <mxGeometry relative="1" as="geometry">
            <Array as="points">
              <mxPoint x="2845" y="-34" />
              <mxPoint x="2845" y="820" />
            </Array>
          </mxGeometry>
        </mxCell>
        <mxCell id="S2aR7nFiy4Ns1DJ3flob-43" value="Cancel Registration" style="edgeLabel;html=1;align=center;verticalAlign=middle;resizable=0;points=[];" parent="S2aR7nFiy4Ns1DJ3flob-34" vertex="1" connectable="0">
          <mxGeometry x="-0.0049" y="6" relative="1" as="geometry">
            <mxPoint y="1" as="offset" />
          </mxGeometry>
        </mxCell>
        <mxCell id="S2aR7nFiy4Ns1DJ3flob-4" value="&lt;b&gt;&lt;font style=&quot;font-size: 20px;&quot;&gt;Registeration Form Displayed&lt;/font&gt;&lt;/b&gt;" style="rounded=1;whiteSpace=wrap;html=1;strokeWidth=2;fillColor=none;" parent="1" vertex="1">
          <mxGeometry x="2968" y="-67" width="201" height="66" as="geometry" />
        </mxCell>
        <mxCell id="S2aR7nFiy4Ns1DJ3flob-22" style="edgeStyle=orthogonalEdgeStyle;rounded=1;orthogonalLoop=1;jettySize=auto;html=1;entryX=0.5;entryY=0;entryDx=0;entryDy=0;strokeWidth=2;curved=0;" parent="1" source="S2aR7nFiy4Ns1DJ3flob-6" target="S2aR7nFiy4Ns1DJ3flob-8" edge="1">
          <mxGeometry relative="1" as="geometry" />
        </mxCell>
        <mxCell id="S2aR7nFiy4Ns1DJ3flob-6" value="&lt;span style=&quot;font-family: monospace; font-size: 0px; text-align: start; text-wrap: nowrap;&quot;&gt;%3CmxGraphModel%3E%3Croot%3E%3CmxCell%20id%3D%220%22%2F%3E%3CmxCell%20id%3D%221%22%20parent%3D%220%22%2F%3E%3CmxCell%20id%3D%222%22%20value%3D%22%26lt%3Bb%26gt%3B%26lt%3Bfont%20style%3D%26quot%3Bfont-size%3A%2020px%3B%26quot%3B%26gt%3BRegisteration%20Form%20Displayed%26lt%3B%2Ffont%26gt%3B%26lt%3B%2Fb%26gt%3B%22%20style%3D%22rounded%3D1%3BwhiteSpace%3Dwrap%3Bhtml%3D1%3BstrokeWidth%3D2%3BfillColor%3Dnone%3B%22%20vertex%3D%221%22%20parent%3D%221%22%3E%3CmxGeometry%20x%3D%222918%22%20y%3D%22-67%22%20width%3D%22201%22%20height%3D%2266%22%20as%3D%22geometry%22%2F%3E%3C%2FmxCell%3E%3C%2Froot%3E%3C%2FmxGraphModel%3E&lt;/span&gt;&lt;b&gt;&lt;font style=&quot;font-size: 20px;&quot;&gt;Login Form Displayed&lt;/font&gt;&lt;/b&gt;" style="rounded=1;whiteSpace=wrap;html=1;strokeWidth=2;fillColor=none;" parent="1" vertex="1">
          <mxGeometry x="3338" y="-67" width="201" height="66" as="geometry" />
        </mxCell>
        <mxCell id="S2aR7nFiy4Ns1DJ3flob-23" style="edgeStyle=orthogonalEdgeStyle;rounded=1;orthogonalLoop=1;jettySize=auto;html=1;strokeWidth=2;curved=0;" parent="1" source="S2aR7nFiy4Ns1DJ3flob-8" target="S2aR7nFiy4Ns1DJ3flob-9" edge="1">
          <mxGeometry relative="1" as="geometry" />
        </mxCell>
        <mxCell id="S2aR7nFiy4Ns1DJ3flob-54" value="&lt;span style=&quot;font-size: 12px;&quot;&gt;Submit Credentials&lt;/span&gt;" style="edgeLabel;html=1;align=center;verticalAlign=middle;resizable=0;points=[];" parent="S2aR7nFiy4Ns1DJ3flob-23" vertex="1" connectable="0">
          <mxGeometry x="-0.5865" relative="1" as="geometry">
            <mxPoint as="offset" />
          </mxGeometry>
        </mxCell>
        <mxCell id="S2aR7nFiy4Ns1DJ3flob-8" value="&lt;span style=&quot;font-family: monospace; font-size: 0px; text-align: start; text-wrap: nowrap;&quot;&gt;%3CmxGraphModel%3E%3Croot%3E%3CmxCell%20id%3D%220%22%2F%3E%3CmxCell%20id%3D%221%22%20parent%3D%220%22%2F%3E%3CmxCell%20id%3D%222%22%20value%3D%22%26lt%3Bb%26gt%3B%26lt%3Bfont%20style%3D%26quot%3Bfont-size%3A%2020px%3B%26quot%3B%26gt%3BRegisteration%20Form%20Displayed%26lt%3B%2Ffont%26gt%3B%26lt%3B%2Fb%26gt%3B%22%20style%3D%22rounded%3D1%3BwhiteSpace%3Dwrap%3Bhtml%3D1%3BstrokeWidth%3D2%3BfillColor%3Dnone%3B%22%20vertex%3D%221%22%20parent%3D%221%22%3E%3CmxGeometry%20x%3D%222918%22%20y%3D%22-67%22%20width%3D%22201%22%20height%3D%2266%22%20as%3D%22geometry%22%2F%3E%3C%2FmxCell%3E%3C%2Froot%3E%3C%2FmxGrap3&lt;/span&gt;&lt;b&gt;&lt;font style=&quot;font-size: 20px;&quot;&gt;User Entering Credentials&lt;/font&gt;&lt;/b&gt;" style="rounded=1;whiteSpace=wrap;html=1;strokeWidth=2;fillColor=none;" parent="1" vertex="1">
          <mxGeometry x="3138" y="143" width="201" height="66" as="geometry" />
        </mxCell>
        <mxCell id="S2aR7nFiy4Ns1DJ3flob-24" style="edgeStyle=orthogonalEdgeStyle;rounded=1;orthogonalLoop=1;jettySize=auto;html=1;strokeWidth=2;curved=0;" parent="1" source="S2aR7nFiy4Ns1DJ3flob-9" target="S2aR7nFiy4Ns1DJ3flob-10" edge="1">
          <mxGeometry relative="1" as="geometry">
            <Array as="points">
              <mxPoint x="3619" y="413" />
            </Array>
          </mxGeometry>
        </mxCell>
        <mxCell id="S2aR7nFiy4Ns1DJ3flob-38" value="Authenticate" style="edgeLabel;html=1;align=center;verticalAlign=middle;resizable=0;points=[];" parent="S2aR7nFiy4Ns1DJ3flob-24" vertex="1" connectable="0">
          <mxGeometry x="-0.2128" y="3" relative="1" as="geometry">
            <mxPoint x="42" y="-28" as="offset" />
          </mxGeometry>
        </mxCell>
        <mxCell id="S2aR7nFiy4Ns1DJ3flob-45" style="edgeStyle=orthogonalEdgeStyle;rounded=1;orthogonalLoop=1;jettySize=auto;html=1;strokeWidth=2;curved=0;" parent="1" source="S2aR7nFiy4Ns1DJ3flob-9" target="S2aR7nFiy4Ns1DJ3flob-11" edge="1">
          <mxGeometry relative="1" as="geometry" />
        </mxCell>
        <mxCell id="S2aR7nFiy4Ns1DJ3flob-46" value="&lt;span style=&quot;font-size: 12px;&quot;&gt;Incorrect Credentials&lt;/span&gt;" style="edgeLabel;html=1;align=center;verticalAlign=middle;resizable=0;points=[];" parent="S2aR7nFiy4Ns1DJ3flob-45" vertex="1" connectable="0">
          <mxGeometry x="-0.1665" y="-2" relative="1" as="geometry">
            <mxPoint as="offset" />
          </mxGeometry>
        </mxCell>
        <mxCell id="S2aR7nFiy4Ns1DJ3flob-9" value="&lt;span style=&quot;font-family: monospace; font-size: 0px; text-align: start; text-wrap: nowrap;&quot;&gt;%3CmxGraphModel%3E%3Croot%3E%3CmxCell%20id%3D%220%22%2F%3E%3CmxCell%20id%3D%221%22%20parent%3D%220%22%2F%3E%3CmxCell%20id%3D%222%22%20value%3D%22%26lt%3Bb%26gt%3B%26lt%3Bfont%20style%3D%26quot%3Bfont-size%3A%2020px%3B%26quot%3B%26gt%3BRegisteration%20Form%20Displayed%26lt%3B%2Ffont%26gt%3B%26lt%3B%2Fb%26gt%3B%22%20style%3D%22rounded%3D1%3BwhiteSpace%3Dwrap%3Bhtml%3D1%3BstrokeWidth%3D2%3BfillColor%3Dnone%3B%22%20vertex%3D%221%22%20parent%3D%221%22%3E%3CmxGeometry%20x%3D%222918%22%20y%3D%22-67%22%20width%3D%22201%22%20height%3D%2266%22%20as%3D%22geometry%22%2F%3E%3C%2FmxCell%3E%3C%2Froot%3E%3C%FmxGrap3&lt;/span&gt;&lt;b&gt;&lt;font style=&quot;font-size: 20px;&quot;&gt;Validating Credentials&lt;/font&gt;&lt;/b&gt;" style="rounded=1;whiteSpace=wrap;html=1;strokeWidth=2;fillColor=none;" parent="1" vertex="1">
          <mxGeometry x="3518" y="293" width="201" height="66" as="geometry" />
        </mxCell>
        <mxCell id="S2aR7nFiy4Ns1DJ3flob-25" style="edgeStyle=orthogonalEdgeStyle;rounded=1;orthogonalLoop=1;jettySize=auto;html=1;strokeWidth=2;curved=0;" parent="1" source="S2aR7nFiy4Ns1DJ3flob-10" target="S2aR7nFiy4Ns1DJ3flob-11" edge="1">
          <mxGeometry relative="1" as="geometry">
            <Array as="points">
              <mxPoint x="3085" y="406" />
            </Array>
          </mxGeometry>
        </mxCell>
        <mxCell id="S2aR7nFiy4Ns1DJ3flob-49" value="&lt;span style=&quot;font-size: 12px;&quot;&gt;Invalid Response&lt;/span&gt;" style="edgeLabel;html=1;align=center;verticalAlign=middle;resizable=0;points=[];" parent="S2aR7nFiy4Ns1DJ3flob-25" vertex="1" connectable="0">
          <mxGeometry x="-0.1949" relative="1" as="geometry">
            <mxPoint as="offset" />
          </mxGeometry>
        </mxCell>
        <mxCell id="S2aR7nFiy4Ns1DJ3flob-26" style="edgeStyle=orthogonalEdgeStyle;rounded=1;orthogonalLoop=1;jettySize=auto;html=1;strokeWidth=2;curved=0;" parent="1" source="S2aR7nFiy4Ns1DJ3flob-10" target="S2aR7nFiy4Ns1DJ3flob-12" edge="1">
          <mxGeometry relative="1" as="geometry" />
        </mxCell>
        <mxCell id="S2aR7nFiy4Ns1DJ3flob-48" value="&lt;span style=&quot;font-size: 12px;&quot;&gt;Valid Response&lt;/span&gt;" style="edgeLabel;html=1;align=center;verticalAlign=middle;resizable=0;points=[];" parent="S2aR7nFiy4Ns1DJ3flob-26" vertex="1" connectable="0">
          <mxGeometry x="-0.1333" relative="1" as="geometry">
            <mxPoint as="offset" />
          </mxGeometry>
        </mxCell>
        <mxCell id="S2aR7nFiy4Ns1DJ3flob-10" value="&lt;span style=&quot;font-family: monospace; font-size: 0px; text-align: start; text-wrap: nowrap;&quot;&gt;%3CmxGraphModel%3E%3Croot%3E%3CmxCell%20id%3D%220%22%2F%3E%3CmxCell%20id%3D%221%22%20parent%3D%220%22%2F%3E%3CmxCell%20id%3D%222%22%20value%3D%22%26lt%3Bb%26gt%3B%26lt%3Bfont%20style%3D%26quot%3Bfont-size%3A%2020px%3B%26quot%3B%26gt%3BRegisteration%20Form%20Displayed%26lt%3B%2Ffont%26gt%3B%26lt%3B%2Fb%26gt%3B%22%20style%3D%22rounded%3D1%3BwhiteSpace%3Dwrap%3Bhtml%3D1%3BstrokeWidth%3D2%3BfillColor%3Dnone%3B%22%20vertex%3D%221%22%20parent%3D%221%22%3E%3CmxGeometry%20x%3D%222918%22%20y%3D%22-67%22%20width%3D%22201%22%20height%3D%2266%22%20as%3D%22geometry%22%2F%3E%3C%2FmxCell%3E%3C%2Froot%3E%3C%FmxGrap3&lt;/span&gt;&lt;b&gt;&lt;font style=&quot;font-size: 20px;&quot;&gt;Authenticating with ClerkAuth&lt;/font&gt;&lt;/b&gt;" style="rounded=1;whiteSpace=wrap;html=1;strokeWidth=2;fillColor=none;" parent="1" vertex="1">
          <mxGeometry x="3228" y="373" width="201" height="66" as="geometry" />
        </mxCell>
        <mxCell id="S2aR7nFiy4Ns1DJ3flob-27" style="edgeStyle=orthogonalEdgeStyle;rounded=1;orthogonalLoop=1;jettySize=auto;html=1;entryX=0;entryY=0.5;entryDx=0;entryDy=0;strokeWidth=2;curved=0;" parent="1" source="S2aR7nFiy4Ns1DJ3flob-11" target="S2aR7nFiy4Ns1DJ3flob-8" edge="1">
          <mxGeometry relative="1" as="geometry">
            <Array as="points">
              <mxPoint x="2945" y="176" />
            </Array>
          </mxGeometry>
        </mxCell>
        <mxCell id="S2aR7nFiy4Ns1DJ3flob-42" value="Retry" style="edgeLabel;html=1;align=center;verticalAlign=middle;resizable=0;points=[];" parent="S2aR7nFiy4Ns1DJ3flob-27" vertex="1" connectable="0">
          <mxGeometry x="-0.237" y="2" relative="1" as="geometry">
            <mxPoint as="offset" />
          </mxGeometry>
        </mxCell>
        <mxCell id="S2aR7nFiy4Ns1DJ3flob-11" value="&lt;span style=&quot;font-family: monospace; font-size: 0px; text-align: start; text-wrap: nowrap;&quot;&gt;%3CmxGraphModel%3E%3Croot%3E%3CmxCell%20id%3D%220%22%2F%3E%3CmxCell%20id%3D%221%22%20parent%3D%220%22%2F%3E%3CmxCell%20id%3D%222%22%20value%3D%22%26lt%3Bb%26gt%3B%26lt%3Bfont%20style%3D%26quot%3Bfont-size%3A%2020px%3B%26quot%3B%26gt%3BRegisteration%20Form%20Displayed%26lt%3B%2Ffont%26gt%3B%26lt%3B%2Fb%26gt%3B%22%20style%3D%22rounded%3D1%3BwhiteSpace%3Dwrap%3Bhtml%3D1%3BstrokeWidth%3D2%3BfillColor%3Dnone%3B%22%20vertex%3D%221%22%20parent%3D%221%22%3E%3CmxGeometry%20x%3D%222918%22%20y%3D%22-67%22%20width%3D%22201%22%20height%3D%2266%22%20as%3D%22geometry%22%2F%3E%3C%2FmxCell%3E%3C%2Froot%3E%3C%FmxGrap3&lt;/span&gt;&lt;b&gt;&lt;font style=&quot;font-size: 20px;&quot;&gt;Invalid Credentials&lt;/font&gt;&lt;/b&gt;" style="rounded=1;whiteSpace=wrap;html=1;strokeWidth=2;fillColor=none;" parent="1" vertex="1">
          <mxGeometry x="2908" y="504" width="201" height="66" as="geometry" />
        </mxCell>
        <mxCell id="S2aR7nFiy4Ns1DJ3flob-28" style="edgeStyle=orthogonalEdgeStyle;rounded=1;orthogonalLoop=1;jettySize=auto;html=1;strokeWidth=2;curved=0;" parent="1" source="S2aR7nFiy4Ns1DJ3flob-12" target="S2aR7nFiy4Ns1DJ3flob-13" edge="1">
          <mxGeometry relative="1" as="geometry" />
        </mxCell>
        <mxCell id="S2aR7nFiy4Ns1DJ3flob-51" value="&lt;span style=&quot;font-size: 12px;&quot;&gt;Successful Registration/Login&lt;/span&gt;" style="edgeLabel;html=1;align=center;verticalAlign=middle;resizable=0;points=[];" parent="S2aR7nFiy4Ns1DJ3flob-28" vertex="1" connectable="0">
          <mxGeometry x="-0.0025" y="-1" relative="1" as="geometry">
            <mxPoint as="offset" />
          </mxGeometry>
        </mxCell>
        <mxCell id="S2aR7nFiy4Ns1DJ3flob-12" value="&lt;span style=&quot;font-family: monospace; font-size: 0px; text-align: start; text-wrap: nowrap;&quot;&gt;%3CmxGraphModel%3E%3Croot%3E%3CmxCell%20id%3D%220%22%2F%3E%3CmxCell%20id%3D%221%22%20parent%3D%220%22%2F%3E%3CmxCell%20id%3D%222%22%20value%3D%22%26lt%3Bb%26gt%3B%26lt%3Bfont%20style%3D%26quot%3Bfont-size%3A%2020px%3B%26quot%3B%26gt%3BRegisteration%20Form%20Displayed%26lt%3B%2Ffont%26gt%3B%26lt%3B%2Fb%26gt%3B%22%20style%3D%22rounded%3D1%3BwhiteSpace%3Dwrap%3Bhtml%3D1%3BstrokeWidth%3D2%3BfillColor%3Dnone%3B%22%20vertex%3D%221%22%20parent%3D%221%22%3E%3CmxGeometry%20x%3D%222918%22%20y%3D%22-67%22%20width%3D%22201%22%20height%3D%2266%22%20as%3D%22geometry%22%2F%3E%3C%2FmxCell%3E%3C%2Froot%3E%3C%Fmx&lt;/span&gt;&lt;b&gt;&lt;font style=&quot;font-size: 20px;&quot;&gt;Successful Authentication&lt;/font&gt;&lt;/b&gt;" style="rounded=1;whiteSpace=wrap;html=1;strokeWidth=2;fillColor=none;" parent="1" vertex="1">
          <mxGeometry x="3227" y="504" width="201" height="66" as="geometry" />
        </mxCell>
        <mxCell id="S2aR7nFiy4Ns1DJ3flob-32" style="edgeStyle=orthogonalEdgeStyle;rounded=1;orthogonalLoop=1;jettySize=auto;html=1;strokeWidth=2;curved=0;" parent="1" source="S2aR7nFiy4Ns1DJ3flob-13" target="S2aR7nFiy4Ns1DJ3flob-30" edge="1">
          <mxGeometry relative="1" as="geometry" />
        </mxCell>
        <mxCell id="S2aR7nFiy4Ns1DJ3flob-52" value="&lt;span style=&quot;font-size: 12px;&quot;&gt;Logout&lt;/span&gt;" style="edgeLabel;html=1;align=center;verticalAlign=middle;resizable=0;points=[];" parent="S2aR7nFiy4Ns1DJ3flob-32" vertex="1" connectable="0">
          <mxGeometry x="-0.0047" y="1" relative="1" as="geometry">
            <mxPoint as="offset" />
          </mxGeometry>
        </mxCell>
        <mxCell id="S2aR7nFiy4Ns1DJ3flob-13" value="&lt;span style=&quot;font-family: monospace; font-size: 0px; text-align: start; text-wrap: nowrap;&quot;&gt;%3CmxGraphModel%3E%3Croot%3E%3CmxCell%20id%3D%220%22%2F%3E%3CmxCell%20id%3D%221%22%20parent%3D%220%22%2F%3E%3CmxCell%20id%3D%222%22%20value%3D%22%26lt%3Bb%26gt%3B%26lt%3Bfont%20style%3D%26quot%3Bfont-size%3A%2020px%3B%26quot%3B%26gt%3BRegisteration%20Form%20Displayed%26lt%3B%2Ffont%26gt%3B%26lt%3B%2Fb%26gt%3B%22%20style%3D%22rounded%3D1%3BwhiteSpace%3Dwrap%3Bhtml%3D1%3BstrokeWidth%3D2%3BfillColor%3Dnone%3B%22%20vertex%3D%221%22%20parent%3D%221%22%3E%3CmxGeometry%20x%3D%222918%22%20y%3D%22-67%22%20width%3D%22201%22%20height%3D%2266%22%20as%3D%22geometry%22%2F%3E%3C%2FmxCell%3E%3C%2Froot%3E%3&lt;/span&gt;&lt;b&gt;&lt;font style=&quot;font-size: 20px;&quot;&gt;Dashboard Displayed&lt;/font&gt;&lt;/b&gt;" style="rounded=1;whiteSpace=wrap;html=1;strokeWidth=2;fillColor=none;" parent="1" vertex="1">
          <mxGeometry x="3227" y="624" width="201" height="66" as="geometry" />
        </mxCell>
        <mxCell id="S2aR7nFiy4Ns1DJ3flob-29" style="edgeStyle=orthogonalEdgeStyle;rounded=1;orthogonalLoop=1;jettySize=auto;html=1;entryX=1;entryY=0.5;entryDx=0;entryDy=0;strokeWidth=2;fontSize=20;fontStyle=1;curved=0;" parent="1" source="S2aR7nFiy4Ns1DJ3flob-30" target="S2aR7nFiy4Ns1DJ3flob-31" edge="1">
          <mxGeometry relative="1" as="geometry">
            <Array as="points">
              <mxPoint x="3705" y="819" />
            </Array>
          </mxGeometry>
        </mxCell>
        <mxCell id="S2aR7nFiy4Ns1DJ3flob-30" value="&lt;span&gt;Logout&lt;/span&gt;" style="whiteSpace=wrap;html=1;fontSize=20;fillColor=none;rounded=1;strokeWidth=2;fontStyle=1" parent="1" vertex="1">
          <mxGeometry x="3629" y="713" width="120" height="60" as="geometry" />
        </mxCell>
        <mxCell id="S2aR7nFiy4Ns1DJ3flob-31" value="" style="ellipse;html=1;shape=endState;fillColor=#000000;strokeColor=light-dark(#000000,#FF9090);strokeWidth=2;fontSize=20;fontStyle=1" parent="1" vertex="1">
          <mxGeometry x="3018" y="799" width="41" height="41" as="geometry" />
        </mxCell>
        <mxCell id="S2aR7nFiy4Ns1DJ3flob-57" value="" style="strokeWidth=2;html=1;shape=mxgraph.flowchart.start_2;whiteSpace=wrap;fillColor=#000000;fontSize=20;fontStyle=1" parent="1" vertex="1">
          <mxGeometry x="3234" y="70" width="8" height="8" as="geometry" />
        </mxCell>
        <mxCell id="S2aR7nFiy4Ns1DJ3flob-58" value="" style="strokeWidth=2;html=1;shape=mxgraph.flowchart.start_2;whiteSpace=wrap;fillColor=#000000;fontSize=20;fontStyle=1" parent="1" vertex="1">
          <mxGeometry x="3254" y="-133" width="7" height="7" as="geometry" />
        </mxCell>
        <mxCell id="S2aR7nFiy4Ns1DJ3flob-74" style="edgeStyle=orthogonalEdgeStyle;rounded=1;orthogonalLoop=1;jettySize=auto;html=1;entryX=0.5;entryY=0;entryDx=0;entryDy=0;strokeWidth=2;curved=0;" parent="1" source="S2aR7nFiy4Ns1DJ3flob-60" target="S2aR7nFiy4Ns1DJ3flob-64" edge="1">
          <mxGeometry relative="1" as="geometry">
            <Array as="points">
              <mxPoint x="3228" y="1516" />
              <mxPoint x="2942" y="1516" />
            </Array>
          </mxGeometry>
        </mxCell>
        <mxCell id="S2aR7nFiy4Ns1DJ3flob-95" value="Validate Complaint(Yes)" style="edgeLabel;html=1;align=center;verticalAlign=middle;resizable=0;points=[];" parent="S2aR7nFiy4Ns1DJ3flob-74" vertex="1" connectable="0">
          <mxGeometry x="0.33" y="-1" relative="1" as="geometry">
            <mxPoint as="offset" />
          </mxGeometry>
        </mxCell>
        <mxCell id="S2aR7nFiy4Ns1DJ3flob-75" style="edgeStyle=orthogonalEdgeStyle;rounded=1;orthogonalLoop=1;jettySize=auto;html=1;entryX=0.5;entryY=0;entryDx=0;entryDy=0;strokeWidth=2;curved=0;" parent="1" source="S2aR7nFiy4Ns1DJ3flob-60" target="S2aR7nFiy4Ns1DJ3flob-65" edge="1">
          <mxGeometry relative="1" as="geometry">
            <Array as="points">
              <mxPoint x="3228" y="1516" />
              <mxPoint x="3547" y="1516" />
            </Array>
          </mxGeometry>
        </mxCell>
        <mxCell id="S2aR7nFiy4Ns1DJ3flob-96" value="Validate Complaint(No)" style="edgeLabel;html=1;align=center;verticalAlign=middle;resizable=0;points=[];" parent="S2aR7nFiy4Ns1DJ3flob-75" vertex="1" connectable="0">
          <mxGeometry x="-0.0388" y="1" relative="1" as="geometry">
            <mxPoint as="offset" />
          </mxGeometry>
        </mxCell>
        <mxCell id="S2aR7nFiy4Ns1DJ3flob-60" value="&lt;b&gt;&lt;font style=&quot;font-size: 20px;&quot;&gt;Complaint Filed&lt;/font&gt;&lt;/b&gt;" style="rounded=1;whiteSpace=wrap;html=1;strokeWidth=2;fillColor=none;" parent="1" vertex="1">
          <mxGeometry x="3168" y="1418" width="120" height="60" as="geometry" />
        </mxCell>
        <mxCell id="S2aR7nFiy4Ns1DJ3flob-63" style="edgeStyle=orthogonalEdgeStyle;rounded=1;orthogonalLoop=1;jettySize=auto;html=1;strokeWidth=2;curved=0;" parent="1" source="S2aR7nFiy4Ns1DJ3flob-61" target="S2aR7nFiy4Ns1DJ3flob-60" edge="1">
          <mxGeometry relative="1" as="geometry" />
        </mxCell>
        <mxCell id="S2aR7nFiy4Ns1DJ3flob-94" value="File Complaint" style="edgeLabel;html=1;align=center;verticalAlign=middle;resizable=0;points=[];" parent="S2aR7nFiy4Ns1DJ3flob-63" vertex="1" connectable="0">
          <mxGeometry x="-0.2619" y="2" relative="1" as="geometry">
            <mxPoint as="offset" />
          </mxGeometry>
        </mxCell>
        <mxCell id="S2aR7nFiy4Ns1DJ3flob-61" value="" style="strokeWidth=2;html=1;shape=mxgraph.flowchart.start_2;whiteSpace=wrap;fillColor=#000000;fontSize=20;fontStyle=1" parent="1" vertex="1">
          <mxGeometry x="3207" y="1314" width="43" height="43" as="geometry" />
        </mxCell>
        <mxCell id="S2aR7nFiy4Ns1DJ3flob-89" style="edgeStyle=orthogonalEdgeStyle;rounded=1;orthogonalLoop=1;jettySize=auto;html=1;entryX=0.5;entryY=0;entryDx=0;entryDy=0;strokeWidth=2;curved=0;" parent="1" source="S2aR7nFiy4Ns1DJ3flob-62" target="S2aR7nFiy4Ns1DJ3flob-86" edge="1">
          <mxGeometry relative="1" as="geometry">
            <Array as="points">
              <mxPoint x="3625" y="1913" />
              <mxPoint x="3625" y="1913" />
            </Array>
          </mxGeometry>
        </mxCell>
        <mxCell id="S2aR7nFiy4Ns1DJ3flob-62" value="&lt;span style=&quot;font-family: monospace; text-align: start; text-wrap: nowrap; font-size: 0px;&quot;&gt;%3CmxGraphModel%3E%3Croot%3E%3CmxCell%20id%3D%220%22%2F%3E%3CmxCell%20id%3D%221%22%20parent%3D%220%22%2F%3E%3CmxCell%20id%3D%222%22%20value%3D%22%26lt%3Bb%26gt%3B%26lt%3Bfont%20style%3D%26quot%3Bfont-size%3A%2020px%3B%26quot%3B%26gt%3BRegisteration%20Form%20Displayed%26lt%3B%2Ffont%26gt%3B%26lt%3B%2Fb%26gt%3B%22%20style%3D%22rounded%3D1%3BwhiteSpace%3Dwrap%3Bhtml%3D1%3BstrokeWidth%3D2%3BfillColor%3Dnone%3B%22%20vertex%3D%221%22%20parent%3D%221%22%3E%3CmxGeometry%20x%3D%222918%22%20y%3D%22-67%22%20width%3D%22201%22%20height%3D%2266%22%20as%3D%22geometry%22%2F%3E%3C%2FmxCell%3E%3C%2Froot%3E%3C%2FmxGraphModel%Rejectio&lt;/span&gt;&lt;b&gt;&lt;font style=&quot;font-size: 20px;&quot;&gt;Complaint Rejected&lt;/font&gt;&lt;/b&gt;" style="rounded=1;whiteSpace=wrap;html=1;strokeWidth=2;fillColor=none;" parent="1" vertex="1">
          <mxGeometry x="3447" y="1708" width="201" height="66" as="geometry" />
        </mxCell>
        <mxCell id="S2aR7nFiy4Ns1DJ3flob-76" style="edgeStyle=orthogonalEdgeStyle;rounded=1;orthogonalLoop=1;jettySize=auto;html=1;strokeWidth=2;curved=0;" parent="1" source="S2aR7nFiy4Ns1DJ3flob-64" target="S2aR7nFiy4Ns1DJ3flob-68" edge="1">
          <mxGeometry relative="1" as="geometry">
            <Array as="points">
              <mxPoint x="2942" y="1663" />
              <mxPoint x="2787" y="1663" />
            </Array>
          </mxGeometry>
        </mxCell>
        <mxCell id="S2aR7nFiy4Ns1DJ3flob-98" value="Category not Assigned" style="edgeLabel;html=1;align=center;verticalAlign=middle;resizable=0;points=[];" parent="S2aR7nFiy4Ns1DJ3flob-76" vertex="1" connectable="0">
          <mxGeometry x="-0.2501" relative="1" as="geometry">
            <mxPoint x="-22" as="offset" />
          </mxGeometry>
        </mxCell>
        <mxCell id="S2aR7nFiy4Ns1DJ3flob-77" style="edgeStyle=orthogonalEdgeStyle;rounded=1;orthogonalLoop=1;jettySize=auto;html=1;strokeWidth=2;curved=0;" parent="1" source="S2aR7nFiy4Ns1DJ3flob-64" target="S2aR7nFiy4Ns1DJ3flob-66" edge="1">
          <mxGeometry relative="1" as="geometry" />
        </mxCell>
        <mxCell id="S2aR7nFiy4Ns1DJ3flob-99" value="Un" style="edgeLabel;html=1;align=center;verticalAlign=middle;resizable=0;points=[];" parent="S2aR7nFiy4Ns1DJ3flob-77" vertex="1" connectable="0">
          <mxGeometry x="-0.4132" y="-1" relative="1" as="geometry">
            <mxPoint as="offset" />
          </mxGeometry>
        </mxCell>
        <mxCell id="S2aR7nFiy4Ns1DJ3flob-100" value="If Category Assigned" style="edgeLabel;html=1;align=center;verticalAlign=middle;resizable=0;points=[];" parent="S2aR7nFiy4Ns1DJ3flob-77" vertex="1" connectable="0">
          <mxGeometry x="-0.417" relative="1" as="geometry">
            <mxPoint as="offset" />
          </mxGeometry>
        </mxCell>
        <mxCell id="S2aR7nFiy4Ns1DJ3flob-64" value="&lt;b&gt;&lt;font style=&quot;font-size: 20px;&quot;&gt;Valid Comaplaint&lt;/font&gt;&lt;/b&gt;" style="rounded=1;whiteSpace=wrap;html=1;strokeWidth=2;fillColor=none;" parent="1" vertex="1">
          <mxGeometry x="2882" y="1551" width="120" height="60" as="geometry" />
        </mxCell>
        <mxCell id="S2aR7nFiy4Ns1DJ3flob-80" style="edgeStyle=orthogonalEdgeStyle;rounded=0;orthogonalLoop=1;jettySize=auto;html=1;strokeWidth=2;" parent="1" source="S2aR7nFiy4Ns1DJ3flob-65" target="S2aR7nFiy4Ns1DJ3flob-62" edge="1">
          <mxGeometry relative="1" as="geometry" />
        </mxCell>
        <mxCell id="S2aR7nFiy4Ns1DJ3flob-97" value="Reject" style="edgeLabel;html=1;align=center;verticalAlign=middle;resizable=0;points=[];" parent="S2aR7nFiy4Ns1DJ3flob-80" vertex="1" connectable="0">
          <mxGeometry x="-0.2675" y="-1" relative="1" as="geometry">
            <mxPoint as="offset" />
          </mxGeometry>
        </mxCell>
        <mxCell id="S2aR7nFiy4Ns1DJ3flob-65" value="&lt;b&gt;&lt;font style=&quot;font-size: 20px;&quot;&gt;Invalid Comaplaint&lt;/font&gt;&lt;/b&gt;" style="rounded=1;whiteSpace=wrap;html=1;strokeWidth=2;fillColor=none;" parent="1" vertex="1">
          <mxGeometry x="3487" y="1554" width="120" height="60" as="geometry" />
        </mxCell>
        <mxCell id="S2aR7nFiy4Ns1DJ3flob-79" style="edgeStyle=orthogonalEdgeStyle;rounded=0;orthogonalLoop=1;jettySize=auto;html=1;strokeWidth=2;" parent="1" source="S2aR7nFiy4Ns1DJ3flob-66" target="S2aR7nFiy4Ns1DJ3flob-67" edge="1">
          <mxGeometry relative="1" as="geometry" />
        </mxCell>
        <mxCell id="S2aR7nFiy4Ns1DJ3flob-101" value="Review Complaint" style="edgeLabel;html=1;align=center;verticalAlign=middle;resizable=0;points=[];" parent="S2aR7nFiy4Ns1DJ3flob-79" vertex="1" connectable="0">
          <mxGeometry x="-0.1653" y="-2" relative="1" as="geometry">
            <mxPoint as="offset" />
          </mxGeometry>
        </mxCell>
        <mxCell id="S2aR7nFiy4Ns1DJ3flob-66" value="&lt;b&gt;&lt;font style=&quot;font-size: 20px;&quot;&gt;Categorized Comaplaint&lt;/font&gt;&lt;/b&gt;" style="rounded=1;whiteSpace=wrap;html=1;strokeWidth=2;fillColor=none;" parent="1" vertex="1">
          <mxGeometry x="3098" y="1712" width="130" height="60" as="geometry" />
        </mxCell>
        <mxCell id="S2aR7nFiy4Ns1DJ3flob-81" style="edgeStyle=orthogonalEdgeStyle;rounded=0;orthogonalLoop=1;jettySize=auto;html=1;entryX=0.5;entryY=0;entryDx=0;entryDy=0;strokeWidth=2;" parent="1" source="S2aR7nFiy4Ns1DJ3flob-67" target="S2aR7nFiy4Ns1DJ3flob-69" edge="1">
          <mxGeometry relative="1" as="geometry" />
        </mxCell>
        <mxCell id="S2aR7nFiy4Ns1DJ3flob-103" value="Decision Made" style="edgeLabel;html=1;align=center;verticalAlign=middle;resizable=0;points=[];" parent="S2aR7nFiy4Ns1DJ3flob-81" vertex="1" connectable="0">
          <mxGeometry x="-0.1977" relative="1" as="geometry">
            <mxPoint as="offset" />
          </mxGeometry>
        </mxCell>
        <mxCell id="S2aR7nFiy4Ns1DJ3flob-67" value="&lt;span style=&quot;font-family: monospace; font-size: 0px; text-align: start; text-wrap: nowrap;&quot;&gt;%3CmxGraphModel%3E%3Croot%3E%3CmxCell%20id%3D%220%22%2F%3E%3CmxCell%20id%3D%221%22%20parent%3D%220%22%2F%3E%3CmxCell%20id%3D%222%22%20value%3D%22%26lt%3Bb%26gt%3B%26lt%3Bfont%20style%3D%26quot%3Bfont-size%3A%2020px%3B%26quot%3B%26gt%3BRegisteration%20Form%20Displayed%26lt%3B%2Ffont%26gt%3B%26lt%3B%2Fb%26gt%3B%22%20style%3D%22rounded%3D1%3BwhiteSpace%3Dwrap%3Bhtml%3D1%3BstrokeWidth%3D2%3BfillColor%3Dnone%3B%22%20vertex%3D%221%22%20parent%3D%221%22%3E%3CmxGeometry%20x%3D%222918%22%20y%3D%22-67%22%20width%3D%22201%22%20height%3D%2266%22%20as%3D%22geometry%22%2F%3E%3C%2FmxCell%3E%3C%2Froot%3E%3C%2FmxGraphModel%Rejectio&lt;/span&gt;&lt;b&gt;&lt;font style=&quot;font-size: 20px;&quot;&gt;Complaint Under Review(Department Complaint Handler)&lt;/font&gt;&lt;/b&gt;" style="rounded=1;whiteSpace=wrap;html=1;strokeWidth=2;fillColor=none;" parent="1" vertex="1">
          <mxGeometry x="3052" y="1874" width="223" height="78" as="geometry" />
        </mxCell>
        <mxCell id="S2aR7nFiy4Ns1DJ3flob-78" style="edgeStyle=orthogonalEdgeStyle;rounded=1;orthogonalLoop=1;jettySize=auto;html=1;entryX=0;entryY=0.5;entryDx=0;entryDy=0;strokeWidth=2;curved=0;" parent="1" source="S2aR7nFiy4Ns1DJ3flob-68" target="S2aR7nFiy4Ns1DJ3flob-67" edge="1">
          <mxGeometry relative="1" as="geometry">
            <Array as="points">
              <mxPoint x="2779" y="1913" />
            </Array>
          </mxGeometry>
        </mxCell>
        <mxCell id="S2aR7nFiy4Ns1DJ3flob-102" value="Review Complaint" style="edgeLabel;html=1;align=center;verticalAlign=middle;resizable=0;points=[];" parent="S2aR7nFiy4Ns1DJ3flob-78" vertex="1" connectable="0">
          <mxGeometry x="-0.0595" y="2" relative="1" as="geometry">
            <mxPoint as="offset" />
          </mxGeometry>
        </mxCell>
        <mxCell id="S2aR7nFiy4Ns1DJ3flob-68" value="&lt;span style=&quot;font-family: monospace; font-size: 0px; text-align: start; text-wrap: nowrap;&quot;&gt;%3CmxGraphModel%3E%3Croot%3E%3CmxCell%20id%3D%220%22%2F%3E%3CmxCell%20id%3D%221%22%20parent%3D%220%22%2F%3E%3CmxCell%20id%3D%222%22%20value%3D%22%26lt%3Bb%26gt%3B%26lt%3Bfont%20style%3D%26quot%3Bfont-size%3A%2020px%3B%26quot%3B%26gt%3BRegisteration%20Form%20Displayed%26lt%3B%2Ffont%26gt%3B%26lt%3B%2Fb%26gt%3B%22%20style%3D%22rounded%3D1%3BwhiteSpace%3Dwrap%3Bhtml%3D1%3BstrokeWidth%3D2%3BfillColor%3Dnone%3B%22%20vertex%3D%221%22%20parent%3D%221%22%3E%3CmxGeometry%20x%3D%222918%22%20y%3D%22-67%22%20width%3D%22201%22%20height%3D%2266%22%20as%3D%22geometry%22%2F%3E%3C%2FmxCell%3E%3C%2Froot%3E%3C%2FmxGraphModel%Rejectio&lt;/span&gt;&lt;b&gt;&lt;font style=&quot;font-size: 20px;&quot;&gt;Complaint Under Review(Representative)&lt;/font&gt;&lt;/b&gt;" style="rounded=1;whiteSpace=wrap;html=1;strokeWidth=2;fillColor=none;" parent="1" vertex="1">
          <mxGeometry x="2666" y="1725" width="242" height="78" as="geometry" />
        </mxCell>
        <mxCell id="S2aR7nFiy4Ns1DJ3flob-83" style="edgeStyle=orthogonalEdgeStyle;rounded=1;orthogonalLoop=1;jettySize=auto;html=1;entryX=0.5;entryY=0;entryDx=0;entryDy=0;strokeWidth=2;curved=0;" parent="1" source="S2aR7nFiy4Ns1DJ3flob-69" target="S2aR7nFiy4Ns1DJ3flob-82" edge="1">
          <mxGeometry relative="1" as="geometry" />
        </mxCell>
        <mxCell id="S2aR7nFiy4Ns1DJ3flob-104" value="Contituent View" style="edgeLabel;html=1;align=center;verticalAlign=middle;resizable=0;points=[];" parent="S2aR7nFiy4Ns1DJ3flob-83" vertex="1" connectable="0">
          <mxGeometry x="-0.043" y="-1" relative="1" as="geometry">
            <mxPoint as="offset" />
          </mxGeometry>
        </mxCell>
        <mxCell id="S2aR7nFiy4Ns1DJ3flob-91" style="edgeStyle=orthogonalEdgeStyle;rounded=1;orthogonalLoop=1;jettySize=auto;html=1;entryX=0;entryY=0.5;entryDx=0;entryDy=0;strokeWidth=2;curved=0;" parent="1" source="S2aR7nFiy4Ns1DJ3flob-69" target="S2aR7nFiy4Ns1DJ3flob-70" edge="1">
          <mxGeometry relative="1" as="geometry" />
        </mxCell>
        <mxCell id="S2aR7nFiy4Ns1DJ3flob-105" value="Notify" style="edgeLabel;html=1;align=center;verticalAlign=middle;resizable=0;points=[];" parent="S2aR7nFiy4Ns1DJ3flob-91" vertex="1" connectable="0">
          <mxGeometry x="-0.2558" y="4" relative="1" as="geometry">
            <mxPoint as="offset" />
          </mxGeometry>
        </mxCell>
        <mxCell id="S2aR7nFiy4Ns1DJ3flob-69" value="&lt;b&gt;&lt;font style=&quot;font-size: 20px;&quot;&gt;Comaplaint Status Updated&lt;/font&gt;&lt;/b&gt;" style="rounded=1;whiteSpace=wrap;html=1;strokeWidth=2;fillColor=none;" parent="1" vertex="1">
          <mxGeometry x="3072" y="2044" width="183" height="60" as="geometry" />
        </mxCell>
        <mxCell id="S2aR7nFiy4Ns1DJ3flob-88" style="edgeStyle=orthogonalEdgeStyle;rounded=1;orthogonalLoop=1;jettySize=auto;html=1;entryX=0.5;entryY=0;entryDx=0;entryDy=0;strokeWidth=2;curved=0;" parent="1" source="S2aR7nFiy4Ns1DJ3flob-70" target="S2aR7nFiy4Ns1DJ3flob-86" edge="1">
          <mxGeometry relative="1" as="geometry">
            <Array as="points">
              <mxPoint x="3625" y="2075" />
            </Array>
          </mxGeometry>
        </mxCell>
        <mxCell id="S2aR7nFiy4Ns1DJ3flob-70" value="&lt;span style=&quot;font-family: monospace; font-size: 0px; text-align: start; text-wrap: nowrap;&quot;&gt;%3CmxGraphModel%3E%3Croot%3E%3CmxCell%20id%3D%220%22%2F%3E%3CmxCell%20id%3D%221%22%20parent%3D%220%22%2F%3E%3CmxCell%20id%3D%222%22%20value%3D%22%26lt%3Bb%26gt%3B%26lt%3Bfont%20style%3D%26quot%3Bfont-size%3A%2020px%3B%26quot%3B%26gt%3BRegisteration%20Form%20Displayed%26lt%3B%2Ffont%26gt%3B%26lt%3B%2Fb%26gt%3B%22%20style%3D%22rounded%3D1%3BwhiteSpace%3Dwrap%3Bhtml%3D1%3BstrokeWidth%3D2%3BfillColor%3Dnone%3B%22%20vertex%3D%221%22%20parent%3D%221%22%3E%3CmxGeometry%20x%3D%222918%22%20y%3D%22-67%22%20width%3D%22201%22%20height%3D%2266%22%20as%3D%22geometry%22%2F%3E%3C%2FmxCell%3E%3C%2Froot%3E%3C%2FmxGraphModel%Rejectio&lt;/span&gt;&lt;b&gt;&lt;font style=&quot;font-size: 20px;&quot;&gt;Notification sent&lt;/font&gt;&lt;/b&gt;" style="rounded=1;whiteSpace=wrap;html=1;strokeWidth=2;fillColor=none;" parent="1" vertex="1">
          <mxGeometry x="3377" y="2041" width="201" height="66" as="geometry" />
        </mxCell>
        <mxCell id="S2aR7nFiy4Ns1DJ3flob-85" style="edgeStyle=orthogonalEdgeStyle;rounded=1;orthogonalLoop=1;jettySize=auto;html=1;entryX=0;entryY=0.5;entryDx=0;entryDy=0;strokeWidth=2;curved=0;" parent="1" source="S2aR7nFiy4Ns1DJ3flob-71" target="S2aR7nFiy4Ns1DJ3flob-72" edge="1">
          <mxGeometry relative="1" as="geometry" />
        </mxCell>
        <mxCell id="S2aR7nFiy4Ns1DJ3flob-107" value="No Further Action Needed" style="edgeLabel;html=1;align=center;verticalAlign=middle;resizable=0;points=[];" parent="S2aR7nFiy4Ns1DJ3flob-85" vertex="1" connectable="0">
          <mxGeometry x="-0.4797" y="-1" relative="1" as="geometry">
            <mxPoint x="41" y="-1" as="offset" />
          </mxGeometry>
        </mxCell>
        <mxCell id="S2aR7nFiy4Ns1DJ3flob-71" value="&lt;b&gt;&lt;font style=&quot;font-size: 20px;&quot;&gt;Feedback Provided&lt;/font&gt;&lt;/b&gt;" style="rounded=1;whiteSpace=wrap;html=1;strokeWidth=2;fillColor=none;" parent="1" vertex="1">
          <mxGeometry x="2804" y="2296" width="129" height="60" as="geometry" />
        </mxCell>
        <mxCell id="S2aR7nFiy4Ns1DJ3flob-87" style="edgeStyle=orthogonalEdgeStyle;rounded=1;orthogonalLoop=1;jettySize=auto;html=1;entryX=0;entryY=0.5;entryDx=0;entryDy=0;strokeWidth=2;curved=0;" parent="1" source="S2aR7nFiy4Ns1DJ3flob-72" target="S2aR7nFiy4Ns1DJ3flob-86" edge="1">
          <mxGeometry relative="1" as="geometry" />
        </mxCell>
        <mxCell id="S2aR7nFiy4Ns1DJ3flob-72" value="&lt;b&gt;&lt;font style=&quot;font-size: 20px;&quot;&gt;Complaint Closed&lt;/font&gt;&lt;/b&gt;" style="rounded=1;whiteSpace=wrap;html=1;strokeWidth=2;fillColor=none;" parent="1" vertex="1">
          <mxGeometry x="3125" y="2296" width="129" height="60" as="geometry" />
        </mxCell>
        <mxCell id="S2aR7nFiy4Ns1DJ3flob-84" style="edgeStyle=orthogonalEdgeStyle;rounded=1;orthogonalLoop=1;jettySize=auto;html=1;strokeWidth=2;curved=0;" parent="1" source="S2aR7nFiy4Ns1DJ3flob-82" target="S2aR7nFiy4Ns1DJ3flob-71" edge="1">
          <mxGeometry relative="1" as="geometry" />
        </mxCell>
        <mxCell id="S2aR7nFiy4Ns1DJ3flob-106" value="Sumit Feedback / complaint.status[resolved]" style="edgeLabel;html=1;align=center;verticalAlign=middle;resizable=0;points=[];" parent="S2aR7nFiy4Ns1DJ3flob-84" vertex="1" connectable="0">
          <mxGeometry x="-0.3767" y="-1" relative="1" as="geometry">
            <mxPoint as="offset" />
          </mxGeometry>
        </mxCell>
        <mxCell id="S2aR7nFiy4Ns1DJ3flob-82" value="&lt;b&gt;&lt;font style=&quot;font-size: 20px;&quot;&gt;Display Complaint&lt;/font&gt;&lt;/b&gt;" style="rounded=1;whiteSpace=wrap;html=1;strokeWidth=2;fillColor=none;" parent="1" vertex="1">
          <mxGeometry x="2804" y="2146" width="129" height="60" as="geometry" />
        </mxCell>
        <mxCell id="S2aR7nFiy4Ns1DJ3flob-86" value="" style="ellipse;html=1;shape=endState;fillColor=#000000;strokeColor=light-dark(#000000,#FF9090);strokeWidth=2;fontSize=20;fontStyle=1" parent="1" vertex="1">
          <mxGeometry x="3604" y="2305" width="41" height="41" as="geometry" />
        </mxCell>
        <mxCell id="S2aR7nFiy4Ns1DJ3flob-92" value="" style="strokeWidth=2;html=1;shape=mxgraph.flowchart.start_2;whiteSpace=wrap;fillColor=#000000;fontSize=20;fontStyle=1" parent="1" vertex="1">
          <mxGeometry x="3224" y="1510" width="8" height="8" as="geometry" />
        </mxCell>
        <mxCell id="S2aR7nFiy4Ns1DJ3flob-114" style="edgeStyle=orthogonalEdgeStyle;rounded=1;orthogonalLoop=1;jettySize=auto;html=1;entryX=0.5;entryY=0;entryDx=0;entryDy=0;strokeWidth=2;curved=0;" parent="1" source="S2aR7nFiy4Ns1DJ3flob-108" target="S2aR7nFiy4Ns1DJ3flob-111" edge="1">
          <mxGeometry relative="1" as="geometry" />
        </mxCell>
        <mxCell id="S2aR7nFiy4Ns1DJ3flob-123" value="if virtual(Yes)" style="edgeLabel;html=1;align=center;verticalAlign=middle;resizable=0;points=[];" parent="S2aR7nFiy4Ns1DJ3flob-114" vertex="1" connectable="0">
          <mxGeometry x="0.2338" y="-2" relative="1" as="geometry">
            <mxPoint as="offset" />
          </mxGeometry>
        </mxCell>
        <mxCell id="S2aR7nFiy4Ns1DJ3flob-115" style="edgeStyle=orthogonalEdgeStyle;rounded=1;orthogonalLoop=1;jettySize=auto;html=1;entryX=0.5;entryY=0;entryDx=0;entryDy=0;strokeWidth=2;curved=0;" parent="1" source="S2aR7nFiy4Ns1DJ3flob-108" target="S2aR7nFiy4Ns1DJ3flob-110" edge="1">
          <mxGeometry relative="1" as="geometry" />
        </mxCell>
        <mxCell id="S2aR7nFiy4Ns1DJ3flob-125" value="if Virtual(No)" style="edgeLabel;html=1;align=center;verticalAlign=middle;resizable=0;points=[];" parent="S2aR7nFiy4Ns1DJ3flob-115" vertex="1" connectable="0">
          <mxGeometry x="-0.1412" y="-1" relative="1" as="geometry">
            <mxPoint as="offset" />
          </mxGeometry>
        </mxCell>
        <mxCell id="S2aR7nFiy4Ns1DJ3flob-108" value="&lt;b&gt;&lt;font style=&quot;font-size: 20px;&quot;&gt;Event Posted&lt;/font&gt;&lt;/b&gt;" style="rounded=1;whiteSpace=wrap;html=1;strokeWidth=2;fillColor=none;" parent="1" vertex="1">
          <mxGeometry x="2963" y="3067" width="120" height="60" as="geometry" />
        </mxCell>
        <mxCell id="S2aR7nFiy4Ns1DJ3flob-118" style="edgeStyle=orthogonalEdgeStyle;rounded=1;orthogonalLoop=1;jettySize=auto;html=1;entryX=0.5;entryY=0;entryDx=0;entryDy=0;strokeWidth=2;curved=0;" parent="1" source="S2aR7nFiy4Ns1DJ3flob-109" target="S2aR7nFiy4Ns1DJ3flob-108" edge="1">
          <mxGeometry relative="1" as="geometry" />
        </mxCell>
        <mxCell id="S2aR7nFiy4Ns1DJ3flob-122" value="Post Event" style="edgeLabel;html=1;align=center;verticalAlign=middle;resizable=0;points=[];" parent="S2aR7nFiy4Ns1DJ3flob-118" vertex="1" connectable="0">
          <mxGeometry x="-0.2708" relative="1" as="geometry">
            <mxPoint as="offset" />
          </mxGeometry>
        </mxCell>
        <mxCell id="S2aR7nFiy4Ns1DJ3flob-109" value="" style="strokeWidth=2;html=1;shape=mxgraph.flowchart.start_2;whiteSpace=wrap;fillColor=#000000;fontSize=20;fontStyle=1" parent="1" vertex="1">
          <mxGeometry x="3002" y="2963" width="43" height="43" as="geometry" />
        </mxCell>
        <mxCell id="S2aR7nFiy4Ns1DJ3flob-117" style="edgeStyle=orthogonalEdgeStyle;rounded=1;orthogonalLoop=1;jettySize=auto;html=1;strokeWidth=2;curved=0;" parent="1" source="S2aR7nFiy4Ns1DJ3flob-110" target="S2aR7nFiy4Ns1DJ3flob-112" edge="1">
          <mxGeometry relative="1" as="geometry" />
        </mxCell>
        <mxCell id="S2aR7nFiy4Ns1DJ3flob-127" value="View" style="edgeLabel;html=1;align=center;verticalAlign=middle;resizable=0;points=[];" parent="S2aR7nFiy4Ns1DJ3flob-117" vertex="1" connectable="0">
          <mxGeometry x="-0.0085" y="1" relative="1" as="geometry">
            <mxPoint y="-1" as="offset" />
          </mxGeometry>
        </mxCell>
        <mxCell id="S2aR7nFiy4Ns1DJ3flob-110" value="&lt;b&gt;&lt;font style=&quot;font-size: 20px;&quot;&gt;Event Calendar Updated&lt;/font&gt;&lt;/b&gt;" style="rounded=1;whiteSpace=wrap;html=1;strokeWidth=2;fillColor=none;" parent="1" vertex="1">
          <mxGeometry x="3083" y="3222" width="181" height="60" as="geometry" />
        </mxCell>
        <mxCell id="S2aR7nFiy4Ns1DJ3flob-116" style="edgeStyle=orthogonalEdgeStyle;rounded=1;orthogonalLoop=1;jettySize=auto;html=1;entryX=0;entryY=0.5;entryDx=0;entryDy=0;strokeWidth=2;curved=0;" parent="1" source="S2aR7nFiy4Ns1DJ3flob-111" target="S2aR7nFiy4Ns1DJ3flob-110" edge="1">
          <mxGeometry relative="1" as="geometry" />
        </mxCell>
        <mxCell id="S2aR7nFiy4Ns1DJ3flob-126" value="Update" style="edgeLabel;html=1;align=center;verticalAlign=middle;resizable=0;points=[];" parent="S2aR7nFiy4Ns1DJ3flob-116" vertex="1" connectable="0">
          <mxGeometry x="-0.3315" relative="1" as="geometry">
            <mxPoint as="offset" />
          </mxGeometry>
        </mxCell>
        <mxCell id="S2aR7nFiy4Ns1DJ3flob-111" value="&lt;b&gt;&lt;font style=&quot;font-size: 20px;&quot;&gt;Meeting Link Generated&lt;/font&gt;&lt;/b&gt;" style="rounded=1;whiteSpace=wrap;html=1;strokeWidth=2;fillColor=none;" parent="1" vertex="1">
          <mxGeometry x="2795" y="3222" width="168" height="60" as="geometry" />
        </mxCell>
        <mxCell id="S2aR7nFiy4Ns1DJ3flob-121" style="edgeStyle=orthogonalEdgeStyle;rounded=1;orthogonalLoop=1;jettySize=auto;html=1;strokeWidth=2;curved=0;" parent="1" source="S2aR7nFiy4Ns1DJ3flob-112" target="S2aR7nFiy4Ns1DJ3flob-113" edge="1">
          <mxGeometry relative="1" as="geometry" />
        </mxCell>
        <mxCell id="S2aR7nFiy4Ns1DJ3flob-112" value="&lt;b&gt;&lt;font style=&quot;font-size: 20px;&quot;&gt;Event Calendar Displayed&lt;/font&gt;&lt;/b&gt;" style="rounded=1;whiteSpace=wrap;html=1;strokeWidth=2;fillColor=none;" parent="1" vertex="1">
          <mxGeometry x="2940" y="3388" width="181" height="60" as="geometry" />
        </mxCell>
        <mxCell id="S2aR7nFiy4Ns1DJ3flob-113" value="" style="ellipse;html=1;shape=endState;fillColor=#000000;strokeColor=light-dark(#000000,#FF9090);strokeWidth=2;fontSize=20;fontStyle=1" parent="1" vertex="1">
          <mxGeometry x="3352" y="3398" width="41" height="41" as="geometry" />
        </mxCell>
        <mxCell id="S2aR7nFiy4Ns1DJ3flob-120" style="edgeStyle=orthogonalEdgeStyle;rounded=1;orthogonalLoop=1;jettySize=auto;html=1;entryX=0;entryY=0.5;entryDx=0;entryDy=0;strokeWidth=2;curved=0;" parent="1" source="S2aR7nFiy4Ns1DJ3flob-119" target="S2aR7nFiy4Ns1DJ3flob-112" edge="1">
          <mxGeometry relative="1" as="geometry" />
        </mxCell>
        <mxCell id="S2aR7nFiy4Ns1DJ3flob-128" value="View" style="edgeLabel;html=1;align=center;verticalAlign=middle;resizable=0;points=[];" parent="S2aR7nFiy4Ns1DJ3flob-120" vertex="1" connectable="0">
          <mxGeometry x="0.0064" y="-2" relative="1" as="geometry">
            <mxPoint y="-2" as="offset" />
          </mxGeometry>
        </mxCell>
        <mxCell id="S2aR7nFiy4Ns1DJ3flob-119" value="" style="strokeWidth=2;html=1;shape=mxgraph.flowchart.start_2;whiteSpace=wrap;fillColor=#000000;fontSize=20;fontStyle=1" parent="1" vertex="1">
          <mxGeometry x="2689" y="3396" width="43" height="43" as="geometry" />
        </mxCell>
        <mxCell id="S2aR7nFiy4Ns1DJ3flob-129" value="" style="strokeWidth=2;html=1;shape=mxgraph.flowchart.start_2;whiteSpace=wrap;fillColor=#000000;fontSize=20;fontStyle=1" parent="1" vertex="1">
          <mxGeometry x="3019" y="3167" width="8" height="8" as="geometry" />
        </mxCell>
        <mxCell id="S2aR7nFiy4Ns1DJ3flob-142" style="edgeStyle=orthogonalEdgeStyle;rounded=0;orthogonalLoop=1;jettySize=auto;html=1;entryX=0.5;entryY=0;entryDx=0;entryDy=0;strokeWidth=2;" parent="1" source="S2aR7nFiy4Ns1DJ3flob-130" target="S2aR7nFiy4Ns1DJ3flob-132" edge="1">
          <mxGeometry relative="1" as="geometry" />
        </mxCell>
        <mxCell id="S2aR7nFiy4Ns1DJ3flob-158" value="Distribute" style="edgeLabel;html=1;align=center;verticalAlign=middle;resizable=0;points=[];" parent="S2aR7nFiy4Ns1DJ3flob-142" vertex="1" connectable="0">
          <mxGeometry x="-0.2255" y="2" relative="1" as="geometry">
            <mxPoint as="offset" />
          </mxGeometry>
        </mxCell>
        <mxCell id="S2aR7nFiy4Ns1DJ3flob-130" value="&lt;b&gt;&lt;font style=&quot;font-size: 20px;&quot;&gt;Survey Created&lt;/font&gt;&lt;/b&gt;" style="rounded=1;whiteSpace=wrap;html=1;strokeWidth=2;fillColor=none;" parent="1" vertex="1">
          <mxGeometry x="2912" y="3832" width="120" height="60" as="geometry" />
        </mxCell>
        <mxCell id="S2aR7nFiy4Ns1DJ3flob-143" style="edgeStyle=orthogonalEdgeStyle;rounded=0;orthogonalLoop=1;jettySize=auto;html=1;strokeWidth=2;" parent="1" source="S2aR7nFiy4Ns1DJ3flob-131" target="S2aR7nFiy4Ns1DJ3flob-130" edge="1">
          <mxGeometry relative="1" as="geometry" />
        </mxCell>
        <mxCell id="S2aR7nFiy4Ns1DJ3flob-157" value="Create" style="edgeLabel;html=1;align=center;verticalAlign=middle;resizable=0;points=[];" parent="S2aR7nFiy4Ns1DJ3flob-143" vertex="1" connectable="0">
          <mxGeometry x="-0.3263" y="-2" relative="1" as="geometry">
            <mxPoint as="offset" />
          </mxGeometry>
        </mxCell>
        <mxCell id="S2aR7nFiy4Ns1DJ3flob-131" value="" style="strokeWidth=2;html=1;shape=mxgraph.flowchart.start_2;whiteSpace=wrap;fillColor=#000000;fontSize=20;fontStyle=1" parent="1" vertex="1">
          <mxGeometry x="2951" y="3728" width="43" height="43" as="geometry" />
        </mxCell>
        <mxCell id="S2aR7nFiy4Ns1DJ3flob-144" value="" style="edgeStyle=orthogonalEdgeStyle;rounded=1;orthogonalLoop=1;jettySize=auto;html=1;strokeWidth=2;curved=0;" parent="1" source="S2aR7nFiy4Ns1DJ3flob-132" target="S2aR7nFiy4Ns1DJ3flob-133" edge="1">
          <mxGeometry relative="1" as="geometry" />
        </mxCell>
        <mxCell id="S2aR7nFiy4Ns1DJ3flob-159" value="participate(Yes)" style="edgeLabel;html=1;align=center;verticalAlign=middle;resizable=0;points=[];" parent="S2aR7nFiy4Ns1DJ3flob-144" vertex="1" connectable="0">
          <mxGeometry x="-0.2453" relative="1" as="geometry">
            <mxPoint as="offset" />
          </mxGeometry>
        </mxCell>
        <mxCell id="S2aR7nFiy4Ns1DJ3flob-149" style="edgeStyle=orthogonalEdgeStyle;rounded=1;orthogonalLoop=1;jettySize=auto;html=1;entryX=0.5;entryY=0;entryDx=0;entryDy=0;strokeWidth=2;curved=0;" parent="1" source="S2aR7nFiy4Ns1DJ3flob-132" target="S2aR7nFiy4Ns1DJ3flob-139" edge="1">
          <mxGeometry relative="1" as="geometry" />
        </mxCell>
        <mxCell id="S2aR7nFiy4Ns1DJ3flob-132" value="&lt;b&gt;&lt;font style=&quot;font-size: 20px;&quot;&gt;Survey Distributed&lt;/font&gt;&lt;/b&gt;" style="rounded=1;whiteSpace=wrap;html=1;strokeWidth=2;fillColor=none;" parent="1" vertex="1">
          <mxGeometry x="2912" y="3952" width="120" height="60" as="geometry" />
        </mxCell>
        <mxCell id="S2aR7nFiy4Ns1DJ3flob-151" style="edgeStyle=orthogonalEdgeStyle;rounded=1;orthogonalLoop=1;jettySize=auto;html=1;entryX=0.5;entryY=0;entryDx=0;entryDy=0;strokeWidth=2;curved=0;" parent="1" source="S2aR7nFiy4Ns1DJ3flob-133" target="S2aR7nFiy4Ns1DJ3flob-136" edge="1">
          <mxGeometry relative="1" as="geometry" />
        </mxCell>
        <mxCell id="S2aR7nFiy4Ns1DJ3flob-161" value="Submit Response" style="edgeLabel;html=1;align=center;verticalAlign=middle;resizable=0;points=[];" parent="S2aR7nFiy4Ns1DJ3flob-151" vertex="1" connectable="0">
          <mxGeometry x="-0.3753" y="-2" relative="1" as="geometry">
            <mxPoint x="2" y="9" as="offset" />
          </mxGeometry>
        </mxCell>
        <mxCell id="S2aR7nFiy4Ns1DJ3flob-155" style="edgeStyle=orthogonalEdgeStyle;rounded=1;orthogonalLoop=1;jettySize=auto;html=1;entryX=0.5;entryY=0;entryDx=0;entryDy=0;strokeWidth=2;curved=0;" parent="1" source="S2aR7nFiy4Ns1DJ3flob-133" target="S2aR7nFiy4Ns1DJ3flob-139" edge="1">
          <mxGeometry relative="1" as="geometry" />
        </mxCell>
        <mxCell id="S2aR7nFiy4Ns1DJ3flob-133" value="&lt;b&gt;&lt;font style=&quot;font-size: 20px;&quot;&gt;Participating in Survey&lt;/font&gt;&lt;/b&gt;" style="rounded=1;whiteSpace=wrap;html=1;strokeWidth=2;fillColor=none;" parent="1" vertex="1">
          <mxGeometry x="2892.25" y="4072" width="159.5" height="60" as="geometry" />
        </mxCell>
        <mxCell id="S2aR7nFiy4Ns1DJ3flob-152" style="edgeStyle=orthogonalEdgeStyle;rounded=1;orthogonalLoop=1;jettySize=auto;html=1;strokeWidth=2;curved=0;" parent="1" source="S2aR7nFiy4Ns1DJ3flob-136" target="S2aR7nFiy4Ns1DJ3flob-137" edge="1">
          <mxGeometry relative="1" as="geometry" />
        </mxCell>
        <mxCell id="S2aR7nFiy4Ns1DJ3flob-162" value="Analyze" style="edgeLabel;html=1;align=center;verticalAlign=middle;resizable=0;points=[];" parent="S2aR7nFiy4Ns1DJ3flob-152" vertex="1" connectable="0">
          <mxGeometry x="-0.0862" y="-2" relative="1" as="geometry">
            <mxPoint as="offset" />
          </mxGeometry>
        </mxCell>
        <mxCell id="S2aR7nFiy4Ns1DJ3flob-136" value="&lt;b&gt;&lt;font style=&quot;font-size: 20px;&quot;&gt;Response Collected&lt;/font&gt;&lt;/b&gt;" style="rounded=1;whiteSpace=wrap;html=1;strokeWidth=2;fillColor=none;" parent="1" vertex="1">
          <mxGeometry x="2911" y="4192" width="122" height="60" as="geometry" />
        </mxCell>
        <mxCell id="S2aR7nFiy4Ns1DJ3flob-153" style="edgeStyle=orthogonalEdgeStyle;rounded=1;orthogonalLoop=1;jettySize=auto;html=1;strokeWidth=2;curved=0;" parent="1" source="S2aR7nFiy4Ns1DJ3flob-137" target="S2aR7nFiy4Ns1DJ3flob-138" edge="1">
          <mxGeometry relative="1" as="geometry" />
        </mxCell>
        <mxCell id="S2aR7nFiy4Ns1DJ3flob-163" value="View" style="edgeLabel;html=1;align=center;verticalAlign=middle;resizable=0;points=[];" parent="S2aR7nFiy4Ns1DJ3flob-153" vertex="1" connectable="0">
          <mxGeometry x="-0.2311" y="-1" relative="1" as="geometry">
            <mxPoint as="offset" />
          </mxGeometry>
        </mxCell>
        <mxCell id="S2aR7nFiy4Ns1DJ3flob-137" value="&lt;b&gt;&lt;font style=&quot;font-size: 20px;&quot;&gt;Results Analyzed&lt;/font&gt;&lt;/b&gt;" style="rounded=1;whiteSpace=wrap;html=1;strokeWidth=2;fillColor=none;" parent="1" vertex="1">
          <mxGeometry x="2911.5" y="4331" width="122" height="60" as="geometry" />
        </mxCell>
        <mxCell id="S2aR7nFiy4Ns1DJ3flob-154" style="edgeStyle=orthogonalEdgeStyle;rounded=1;orthogonalLoop=1;jettySize=auto;html=1;entryX=0;entryY=0.5;entryDx=0;entryDy=0;strokeWidth=2;curved=0;" parent="1" source="S2aR7nFiy4Ns1DJ3flob-138" target="S2aR7nFiy4Ns1DJ3flob-139" edge="1">
          <mxGeometry relative="1" as="geometry" />
        </mxCell>
        <mxCell id="S2aR7nFiy4Ns1DJ3flob-138" value="&lt;b&gt;&lt;font style=&quot;font-size: 20px;&quot;&gt;Report Displayed&lt;/font&gt;&lt;/b&gt;" style="rounded=1;whiteSpace=wrap;html=1;strokeWidth=2;fillColor=none;" parent="1" vertex="1">
          <mxGeometry x="2911.5" y="4450" width="122" height="60" as="geometry" />
        </mxCell>
        <mxCell id="S2aR7nFiy4Ns1DJ3flob-139" value="" style="ellipse;html=1;shape=endState;fillColor=#000000;strokeColor=light-dark(#000000,#FF9090);strokeWidth=2;fontSize=20;fontStyle=1" parent="1" vertex="1">
          <mxGeometry x="3259" y="4460" width="41" height="41" as="geometry" />
        </mxCell>
        <mxCell id="S2aR7nFiy4Ns1DJ3flob-150" style="edgeStyle=orthogonalEdgeStyle;rounded=1;orthogonalLoop=1;jettySize=auto;html=1;strokeWidth=2;curved=0;" parent="1" source="S2aR7nFiy4Ns1DJ3flob-140" target="S2aR7nFiy4Ns1DJ3flob-133" edge="1">
          <mxGeometry relative="1" as="geometry" />
        </mxCell>
        <mxCell id="S2aR7nFiy4Ns1DJ3flob-160" value="participate(Yes)" style="edgeLabel;html=1;align=center;verticalAlign=middle;resizable=0;points=[];" parent="S2aR7nFiy4Ns1DJ3flob-150" vertex="1" connectable="0">
          <mxGeometry x="-0.2775" y="-2" relative="1" as="geometry">
            <mxPoint x="13" y="-2" as="offset" />
          </mxGeometry>
        </mxCell>
        <mxCell id="S2aR7nFiy4Ns1DJ3flob-140" value="" style="strokeWidth=2;html=1;shape=mxgraph.flowchart.start_2;whiteSpace=wrap;fillColor=#000000;fontSize=20;fontStyle=1" parent="1" vertex="1">
          <mxGeometry x="2708" y="4080" width="43" height="43" as="geometry" />
        </mxCell>
        <mxCell id="S2aR7nFiy4Ns1DJ3flob-156" style="edgeStyle=orthogonalEdgeStyle;rounded=1;orthogonalLoop=1;jettySize=auto;html=1;entryX=0;entryY=0.5;entryDx=0;entryDy=0;strokeWidth=2;curved=0;" parent="1" source="S2aR7nFiy4Ns1DJ3flob-141" target="S2aR7nFiy4Ns1DJ3flob-138" edge="1">
          <mxGeometry relative="1" as="geometry" />
        </mxCell>
        <mxCell id="S2aR7nFiy4Ns1DJ3flob-164" value="View" style="edgeLabel;html=1;align=center;verticalAlign=middle;resizable=0;points=[];" parent="S2aR7nFiy4Ns1DJ3flob-156" vertex="1" connectable="0">
          <mxGeometry x="-0.8147" relative="1" as="geometry">
            <mxPoint x="41" as="offset" />
          </mxGeometry>
        </mxCell>
        <mxCell id="S2aR7nFiy4Ns1DJ3flob-141" value="" style="strokeWidth=2;html=1;shape=mxgraph.flowchart.start_2;whiteSpace=wrap;fillColor=#000000;fontSize=20;fontStyle=1" parent="1" vertex="1">
          <mxGeometry x="2705" y="4459" width="43" height="43" as="geometry" />
        </mxCell>
        <mxCell id="S2aR7nFiy4Ns1DJ3flob-178" value="" style="edgeStyle=orthogonalEdgeStyle;rounded=0;orthogonalLoop=1;jettySize=auto;html=1;strokeWidth=2;" parent="1" source="S2aR7nFiy4Ns1DJ3flob-165" target="S2aR7nFiy4Ns1DJ3flob-168" edge="1">
          <mxGeometry relative="1" as="geometry" />
        </mxCell>
        <mxCell id="S2aR7nFiy4Ns1DJ3flob-185" value="Collect" style="edgeLabel;html=1;align=center;verticalAlign=middle;resizable=0;points=[];" parent="S2aR7nFiy4Ns1DJ3flob-178" vertex="1" connectable="0">
          <mxGeometry x="-0.1973" y="-1" relative="1" as="geometry">
            <mxPoint as="offset" />
          </mxGeometry>
        </mxCell>
        <mxCell id="S2aR7nFiy4Ns1DJ3flob-165" value="&lt;b&gt;&lt;font style=&quot;font-size: 20px;&quot;&gt;View Stats Requested&lt;/font&gt;&lt;/b&gt;" style="rounded=1;whiteSpace=wrap;html=1;strokeWidth=2;fillColor=none;" parent="1" vertex="1">
          <mxGeometry x="2754.5" y="5264" width="120" height="60" as="geometry" />
        </mxCell>
        <mxCell id="S2aR7nFiy4Ns1DJ3flob-177" value="" style="edgeStyle=orthogonalEdgeStyle;rounded=0;orthogonalLoop=1;jettySize=auto;html=1;strokeWidth=2;" parent="1" source="S2aR7nFiy4Ns1DJ3flob-166" target="S2aR7nFiy4Ns1DJ3flob-165" edge="1">
          <mxGeometry relative="1" as="geometry" />
        </mxCell>
        <mxCell id="S2aR7nFiy4Ns1DJ3flob-184" value="Request Stats" style="edgeLabel;html=1;align=center;verticalAlign=middle;resizable=0;points=[];" parent="S2aR7nFiy4Ns1DJ3flob-177" vertex="1" connectable="0">
          <mxGeometry x="-0.2417" relative="1" as="geometry">
            <mxPoint as="offset" />
          </mxGeometry>
        </mxCell>
        <mxCell id="S2aR7nFiy4Ns1DJ3flob-166" value="" style="strokeWidth=2;html=1;shape=mxgraph.flowchart.start_2;whiteSpace=wrap;fillColor=#000000;fontSize=20;fontStyle=1" parent="1" vertex="1">
          <mxGeometry x="2793" y="5114" width="43" height="43" as="geometry" />
        </mxCell>
        <mxCell id="S2aR7nFiy4Ns1DJ3flob-167" value="" style="ellipse;html=1;shape=endState;fillColor=#000000;strokeColor=light-dark(#000000,#FF9090);strokeWidth=2;fontSize=20;fontStyle=1" parent="1" vertex="1">
          <mxGeometry x="2794" y="5963" width="41" height="41" as="geometry" />
        </mxCell>
        <mxCell id="S2aR7nFiy4Ns1DJ3flob-179" value="" style="edgeStyle=orthogonalEdgeStyle;rounded=0;orthogonalLoop=1;jettySize=auto;html=1;strokeWidth=2;" parent="1" source="S2aR7nFiy4Ns1DJ3flob-168" target="S2aR7nFiy4Ns1DJ3flob-169" edge="1">
          <mxGeometry relative="1" as="geometry" />
        </mxCell>
        <mxCell id="S2aR7nFiy4Ns1DJ3flob-186" value="Compute" style="edgeLabel;html=1;align=center;verticalAlign=middle;resizable=0;points=[];" parent="S2aR7nFiy4Ns1DJ3flob-179" vertex="1" connectable="0">
          <mxGeometry x="-0.1505" relative="1" as="geometry">
            <mxPoint as="offset" />
          </mxGeometry>
        </mxCell>
        <mxCell id="S2aR7nFiy4Ns1DJ3flob-168" value="&lt;b&gt;&lt;font style=&quot;font-size: 20px;&quot;&gt;Collecting Stats&lt;/font&gt;&lt;/b&gt;" style="rounded=1;whiteSpace=wrap;html=1;strokeWidth=2;fillColor=none;" parent="1" vertex="1">
          <mxGeometry x="2754" y="5420" width="120" height="60" as="geometry" />
        </mxCell>
        <mxCell id="S2aR7nFiy4Ns1DJ3flob-181" value="" style="edgeStyle=orthogonalEdgeStyle;rounded=0;orthogonalLoop=1;jettySize=auto;html=1;strokeWidth=2;" parent="1" source="S2aR7nFiy4Ns1DJ3flob-169" target="S2aR7nFiy4Ns1DJ3flob-170" edge="1">
          <mxGeometry relative="1" as="geometry" />
        </mxCell>
        <mxCell id="S2aR7nFiy4Ns1DJ3flob-187" value="Organize" style="edgeLabel;html=1;align=center;verticalAlign=middle;resizable=0;points=[];" parent="S2aR7nFiy4Ns1DJ3flob-181" vertex="1" connectable="0">
          <mxGeometry x="-0.108" y="2" relative="1" as="geometry">
            <mxPoint as="offset" />
          </mxGeometry>
        </mxCell>
        <mxCell id="S2aR7nFiy4Ns1DJ3flob-169" value="&lt;b&gt;&lt;font style=&quot;font-size: 20px;&quot;&gt;Computing Stats&lt;/font&gt;&lt;/b&gt;" style="rounded=1;whiteSpace=wrap;html=1;strokeWidth=2;fillColor=none;" parent="1" vertex="1">
          <mxGeometry x="2754.5" y="5568" width="120" height="60" as="geometry" />
        </mxCell>
        <mxCell id="S2aR7nFiy4Ns1DJ3flob-182" value="" style="edgeStyle=orthogonalEdgeStyle;rounded=0;orthogonalLoop=1;jettySize=auto;html=1;strokeWidth=2;" parent="1" source="S2aR7nFiy4Ns1DJ3flob-170" target="S2aR7nFiy4Ns1DJ3flob-171" edge="1">
          <mxGeometry relative="1" as="geometry" />
        </mxCell>
        <mxCell id="S2aR7nFiy4Ns1DJ3flob-188" value="View" style="edgeLabel;html=1;align=center;verticalAlign=middle;resizable=0;points=[];" parent="S2aR7nFiy4Ns1DJ3flob-182" vertex="1" connectable="0">
          <mxGeometry x="-0.2075" y="-2" relative="1" as="geometry">
            <mxPoint as="offset" />
          </mxGeometry>
        </mxCell>
        <mxCell id="S2aR7nFiy4Ns1DJ3flob-170" value="&lt;b&gt;&lt;font style=&quot;font-size: 20px;&quot;&gt;Organizing Stats&lt;/font&gt;&lt;/b&gt;" style="rounded=1;whiteSpace=wrap;html=1;strokeWidth=2;fillColor=none;" parent="1" vertex="1">
          <mxGeometry x="2754" y="5690" width="120" height="60" as="geometry" />
        </mxCell>
        <mxCell id="S2aR7nFiy4Ns1DJ3flob-183" value="" style="edgeStyle=orthogonalEdgeStyle;rounded=0;orthogonalLoop=1;jettySize=auto;html=1;strokeWidth=2;" parent="1" source="S2aR7nFiy4Ns1DJ3flob-171" target="S2aR7nFiy4Ns1DJ3flob-167" edge="1">
          <mxGeometry relative="1" as="geometry" />
        </mxCell>
        <mxCell id="S2aR7nFiy4Ns1DJ3flob-171" value="&lt;b&gt;&lt;font style=&quot;font-size: 20px;&quot;&gt;Displaying Stats&lt;/font&gt;&lt;/b&gt;" style="rounded=1;whiteSpace=wrap;html=1;strokeWidth=2;fillColor=none;" parent="1" vertex="1">
          <mxGeometry x="2754" y="5834" width="120" height="60" as="geometry" />
        </mxCell>
        <mxCell id="pCmBbisaxGsRF9TQ8qV_-2" style="edgeStyle=orthogonalEdgeStyle;rounded=0;orthogonalLoop=1;jettySize=auto;html=1;entryX=0;entryY=0.5;entryDx=0;entryDy=0;strokeWidth=2;" edge="1" parent="1" source="pCmBbisaxGsRF9TQ8qV_-1" target="S2aR7nFiy4Ns1DJ3flob-171">
          <mxGeometry relative="1" as="geometry" />
        </mxCell>
        <mxCell id="pCmBbisaxGsRF9TQ8qV_-3" value="View" style="edgeLabel;html=1;align=center;verticalAlign=middle;resizable=0;points=[];" vertex="1" connectable="0" parent="pCmBbisaxGsRF9TQ8qV_-2">
          <mxGeometry x="-0.3116" y="1" relative="1" as="geometry">
            <mxPoint as="offset" />
          </mxGeometry>
        </mxCell>
        <mxCell id="pCmBbisaxGsRF9TQ8qV_-1" value="" style="strokeWidth=2;html=1;shape=mxgraph.flowchart.start_2;whiteSpace=wrap;fillColor=#000000;fontSize=20;fontStyle=1" vertex="1" parent="1">
          <mxGeometry x="2547" y="5843" width="43" height="43" as="geometry" />
        </mxCell>
      </root>
    </mxGraphModel>
  </diagram>
</mxfile>
